<?xml version="1.0" encoding="utf-8"?>
<svg version="1.1" xmlns:xlink="http://www.w3.org/1999/xlink" width="15px" height="15px" viewBox="387 365  15 15" xmlns="http://www.w3.org/2000/svg">
  <path d="M 387.5 367  A 1.5 1.5 0 0 1 389 365.5 L 400 365.5  A 1.5 1.5 0 0 1 401.5 367 L 401.5 378  A 1.5 1.5 0 0 1 400 379.5 L 389 379.5  A 1.5 1.5 0 0 1 387.5 378 L 387.5 367  Z " fill-rule="nonzero" fill="#f0f0f0" stroke="none" />
  <path d="M 387.5 367  A 1.5 1.5 0 0 1 389 365.5 L 400 365.5  A 1.5 1.5 0 0 1 401.5 367 L 401.5 378  A 1.5 1.5 0 0 1 400 379.5 L 389 379.5  A 1.5 1.5 0 0 1 387.5 378 L 387.5 367  Z " stroke-width="1" stroke="#aaaaaa" fill="none" />
</svg>