<?xml version="1.0" encoding="utf-8"?>
<svg version="1.1" xmlns:xlink="http://www.w3.org/1999/xlink" width="15px" height="15px" viewBox="387 479  15 15" xmlns="http://www.w3.org/2000/svg">
  <path d="M 387.5 481  A 1.5 1.5 0 0 1 389 479.5 L 400 479.5  A 1.5 1.5 0 0 1 401.5 481 L 401.5 492  A 1.5 1.5 0 0 1 400 493.5 L 389 493.5  A 1.5 1.5 0 0 1 387.5 492 L 387.5 481  Z " fill-rule="nonzero" fill="#f0f0f0" stroke="none" />
  <path d="M 387.5 481  A 1.5 1.5 0 0 1 389 479.5 L 400 479.5  A 1.5 1.5 0 0 1 401.5 481 L 401.5 492  A 1.5 1.5 0 0 1 400 493.5 L 389 493.5  A 1.5 1.5 0 0 1 387.5 492 L 387.5 481  Z " stroke-width="1" stroke="#aaaaaa" fill="none" />
</svg>