<?xml version="1.0" encoding="utf-8"?>
<svg version="1.1" xmlns:xlink="http://www.w3.org/1999/xlink" width="15px" height="15px" viewBox="867 192  15 15" xmlns="http://www.w3.org/2000/svg">
  <path d="M 867.5 194  A 1.5 1.5 0 0 1 869 192.5 L 880 192.5  A 1.5 1.5 0 0 1 881.5 194 L 881.5 205  A 1.5 1.5 0 0 1 880 206.5 L 869 206.5  A 1.5 1.5 0 0 1 867.5 205 L 867.5 194  Z " fill-rule="nonzero" fill="#ffffff" stroke="none" />
  <path d="M 867.5 194  A 1.5 1.5 0 0 1 869 192.5 L 880 192.5  A 1.5 1.5 0 0 1 881.5 194 L 881.5 205  A 1.5 1.5 0 0 1 880 206.5 L 869 206.5  A 1.5 1.5 0 0 1 867.5 205 L 867.5 194  Z " stroke-width="1" stroke="#aaaaaa" fill="none" />
  <path d="M 870.214285714286 199.5  L 873.428571428571 202.714285714286  " stroke-width="3.21428571428571" stroke="#aaaaaa" fill="none" />
  <path d="M 873.428571428571 202.714285714286  L 878.785714285714 195.214285714286  " stroke-width="3.21428571428571" stroke="#aaaaaa" fill="none" />
</svg>