<?xml version="1.0" encoding="utf-8"?>
<svg version="1.1" xmlns:xlink="http://www.w3.org/1999/xlink" width="15px" height="15px" viewBox="867 222  15 15" xmlns="http://www.w3.org/2000/svg">
  <path d="M 867.5 224  A 1.5 1.5 0 0 1 869 222.5 L 880 222.5  A 1.5 1.5 0 0 1 881.5 224 L 881.5 235  A 1.5 1.5 0 0 1 880 236.5 L 869 236.5  A 1.5 1.5 0 0 1 867.5 235 L 867.5 224  Z " fill-rule="nonzero" fill="#ffffff" stroke="none" />
  <path d="M 867.5 224  A 1.5 1.5 0 0 1 869 222.5 L 880 222.5  A 1.5 1.5 0 0 1 881.5 224 L 881.5 235  A 1.5 1.5 0 0 1 880 236.5 L 869 236.5  A 1.5 1.5 0 0 1 867.5 235 L 867.5 224  Z " stroke-width="1" stroke="#aaaaaa" fill="none" />
  <path d="M 870.214285714286 229.5  L 873.428571428571 232.714285714286  " stroke-width="3.21428571428571" stroke="#aaaaaa" fill="none" />
  <path d="M 873.428571428571 232.714285714286  L 878.785714285714 225.214285714286  " stroke-width="3.21428571428571" stroke="#aaaaaa" fill="none" />
</svg>