<?xml version="1.0" encoding="utf-8"?>
<svg version="1.1" xmlns:xlink="http://www.w3.org/1999/xlink" width="15px" height="15px" viewBox="882 132  15 15" xmlns="http://www.w3.org/2000/svg">
  <path d="M 882.5 134  A 1.5 1.5 0 0 1 884 132.5 L 895 132.5  A 1.5 1.5 0 0 1 896.5 134 L 896.5 145  A 1.5 1.5 0 0 1 895 146.5 L 884 146.5  A 1.5 1.5 0 0 1 882.5 145 L 882.5 134  Z " fill-rule="nonzero" fill="#ffffff" stroke="none" />
  <path d="M 882.5 134  A 1.5 1.5 0 0 1 884 132.5 L 895 132.5  A 1.5 1.5 0 0 1 896.5 134 L 896.5 145  A 1.5 1.5 0 0 1 895 146.5 L 884 146.5  A 1.5 1.5 0 0 1 882.5 145 L 882.5 134  Z " stroke-width="1" stroke="#aaaaaa" fill="none" />
</svg>