<?xml version="1.0" encoding="utf-8"?>
<svg version="1.1" xmlns:xlink="http://www.w3.org/1999/xlink" width="15px" height="15px" viewBox="867 282  15 15" xmlns="http://www.w3.org/2000/svg">
  <path d="M 867.5 284  A 1.5 1.5 0 0 1 869 282.5 L 880 282.5  A 1.5 1.5 0 0 1 881.5 284 L 881.5 295  A 1.5 1.5 0 0 1 880 296.5 L 869 296.5  A 1.5 1.5 0 0 1 867.5 295 L 867.5 284  Z " fill-rule="nonzero" fill="#f0f0f0" stroke="none" />
  <path d="M 867.5 284  A 1.5 1.5 0 0 1 869 282.5 L 880 282.5  A 1.5 1.5 0 0 1 881.5 284 L 881.5 295  A 1.5 1.5 0 0 1 880 296.5 L 869 296.5  A 1.5 1.5 0 0 1 867.5 295 L 867.5 284  Z " stroke-width="1" stroke="#aaaaaa" fill="none" />
</svg>