<?xml version="1.0" encoding="utf-8"?>
<svg version="1.1" xmlns:xlink="http://www.w3.org/1999/xlink" width="15px" height="15px" viewBox="867 252  15 15" xmlns="http://www.w3.org/2000/svg">
  <path d="M 867.5 254  A 1.5 1.5 0 0 1 869 252.5 L 880 252.5  A 1.5 1.5 0 0 1 881.5 254 L 881.5 265  A 1.5 1.5 0 0 1 880 266.5 L 869 266.5  A 1.5 1.5 0 0 1 867.5 265 L 867.5 254  Z " fill-rule="nonzero" fill="#ffffff" stroke="none" />
  <path d="M 867.5 254  A 1.5 1.5 0 0 1 869 252.5 L 880 252.5  A 1.5 1.5 0 0 1 881.5 254 L 881.5 265  A 1.5 1.5 0 0 1 880 266.5 L 869 266.5  A 1.5 1.5 0 0 1 867.5 265 L 867.5 254  Z " stroke-width="1" stroke="#aaaaaa" fill="none" />
</svg>