<?xml version="1.0" encoding="utf-8"?>
<svg version="1.1" xmlns:xlink="http://www.w3.org/1999/xlink" width="35px" height="47px" xmlns="http://www.w3.org/2000/svg">
  <defs>
    <filter x="562px" y="55px" width="35px" height="47px" filterUnits="userSpaceOnUse" id="filter10">
      <feOffset dx="0" dy="0" in="SourceAlpha" result="shadowOffsetInner" />
      <feGaussianBlur stdDeviation="5" in="shadowOffsetInner" result="shadowGaussian" />
      <feComposite in2="shadowGaussian" operator="atop" in="SourceAlpha" result="shadowComposite" />
      <feColorMatrix type="matrix" values="0 0 0 0 1  0 0 0 0 1  0 0 0 0 1  0 0 0 1 0  " in="shadowComposite" />
    </filter>
    <g id="widget11">
      <path d="M 6.7624172651079 26.8591531375643  C 4.78662366639792 26.8591531375643  3.12695704348153 26.4730266171306  1.54632216451353 25.6235482721767  C 0.993099956874735 25.2374217517431  0.676972981081133 24.7740699272228  0.676972981081133 24.2334927986157  C 0.676972981081133 23.8473662781821  0.835036468977937 23.4612397577485  1.07213170082313 23.1523385414016  C 1.38825867661673 22.8434373250547  1.70438565241033 22.6889867168813  2.17857611610073 22.6889867168813  C 2.49470309189433 22.6889867168813  2.65276657979113 22.766212020968  2.88986181163632 22.8434373250547  C 4.07533797086232 23.3840144536618  5.18178238613992 23.6929156700087  6.44629028931431 23.6929156700087  C 7.9478934243339 23.6929156700087  9.0543378396115 23.306789149575  9.8446552790955 22.4573108046211  C 10.6349727185795 21.6078324596672  11.0301314383215 20.2177769861062  11 18.2099190798514  L 11 1.91537991755305  C 11.0301314383215 1.45202809303272  11.1881949262183 1.06590157259911  11.5833536459603 0.679775052165503  C 11.8994806217539 0.293648531731892  12.3736710854443 0.139197923558449  12.8478615491347 0.139197923558449  C 13.3220520128251 0.139197923558449  13.7172107325671 0.293648531731892  14.1123694523091 0.679775052165503  C 14.5075281720511 1.06590157259911  14.6655916599479 1.45202809303272  14.6655916599479 1.91537991755305  L 14.6655916599479 17.9010178635045  C 14.6655916599479 20.8355794187999  14.0333377083607 23.0751132373149  12.6897980612379 24.6196193190493  C 11.3462584141151 26.1641254007838  9.37046481540509 26.8591531375643  6.7624172651079 26.8591531375643  Z " fill-rule="nonzero" fill="#3e3a39" stroke="none" transform="matrix(1 0 0 1 572 65 )" />
    </g>
  </defs>
  <g transform="matrix(1 0 0 1 -562 -55 )">
    <use xlink:href="#widget11" filter="url(#filter10)" />
    <use xlink:href="#widget11" />
  </g>
</svg>