<?xml version="1.0" encoding="utf-8"?>
<svg version="1.1" xmlns:xlink="http://www.w3.org/1999/xlink" width="43px" height="47px" xmlns="http://www.w3.org/2000/svg">
  <defs>
    <filter x="581px" y="55px" width="43px" height="47px" filterUnits="userSpaceOnUse" id="filter12">
      <feOffset dx="0" dy="0" in="SourceAlpha" result="shadowOffsetInner" />
      <feGaussianBlur stdDeviation="5" in="shadowOffsetInner" result="shadowGaussian" />
      <feComposite in2="shadowGaussian" operator="atop" in="SourceAlpha" result="shadowComposite" />
      <feColorMatrix type="matrix" values="0 0 0 0 1  0 0 0 0 1  0 0 0 0 1  0 0 0 1 0  " in="shadowComposite" />
    </filter>
    <g id="widget13">
      <path d="M 11.5775585666376 26.8591531375643  C 9.433890642851 26.8591531375643  7.68719826050637 26.5502519212174  6.01990098645014 25.7779988803501  C 4.27320860410551 25.0057458394829  2.84409665491445 23.8473662781821  1.81196024716535 22.3028601964477  C 0.779823839416248 20.7583541147132  0.224058081397498 18.9049468166319  0.224058081397498 16.7426383022037  L 0.224058081397498 1.91537991755305  C 0.224058081397498 1.45202809303272  0.382848297974287 1.06590157259911  0.779823839416248 0.679775052165503  C 1.09740427256983 0.293648531731892  1.57377492230017 0.139197923558449  2.05014557203053 0.139197923558449  C 2.52651622176087 0.139197923558449  2.92349176320283 0.293648531731892  3.32046730464479 0.679775052165503  C 3.71744284608676 1.06590157259911  3.87623306266354 1.45202809303272  4 1.91537991755305  L 4 16.7426383022037  C 3.87623306266354 18.2871443839381  4.27320860410551 19.5227492493257  4.98776457870105 20.526678202453  C 5.62292544500818 21.5306071555804  6.57566674446889 22.3028601964477  7.68719826050638 22.8434373250547  C 8.79872977654388 23.3840144536618  10.0690515091582 23.6156903659219  11.4187683500608 23.6156903659219  C 12.6890900826751 23.6156903659219  13.9594118152894 23.3840144536618  15.0709433313269 22.8434373250547  C 16.2618699556528 22.3028601964477  17.2146112551135 21.5306071555804  17.8497721214206 20.4494528983663  C 18.4849329877277 19.3682986411522  18.8819085291697 18.1326937757647  18.8819085291697 16.7426383022037  L 18.8819085291697 1.91537991755305  C 18.8819085291697 1.45202809303272  19.0406987457465 1.06590157259911  19.4376742871884 0.679775052165503  C 19.755254720342 0.293648531731892  20.2316253700724 0.139197923558449  20.7079960198027 0.139197923558449  C 21.1843666695331 0.139197923558449  21.581342210975 0.293648531731892  21.978317752417 0.679775052165503  C 22.375293293859 1.06590157259911  22.5340835104357 1.45202809303272  22.5340835104357 1.91537991755305  L 22.5340835104357 16.665412998117  C 22.5340835104357 18.8277215125452  21.978317752417 20.7583541147132  20.9461813446679 22.3028601964477  C 19.9140449369188 23.7701409740954  18.5643280960161 24.9285205353962  16.8970308219599 25.7007735762634  C 15.2297335479037 26.4730266171306  13.4036460572706 26.8591531375643  11.5775585666376 26.8591531375643  Z " fill-rule="nonzero" fill="#3e3a39" stroke="none" transform="matrix(1 0 0 1 591 65 )" />
    </g>
  </defs>
  <g transform="matrix(1 0 0 1 -581 -55 )">
    <use xlink:href="#widget13" filter="url(#filter12)" />
    <use xlink:href="#widget13" />
  </g>
</svg>