<?xml version="1.0" encoding="utf-8"?>
<svg version="1.1" xmlns:xlink="http://www.w3.org/1999/xlink" width="44px" height="47px" xmlns="http://www.w3.org/2000/svg">
  <defs>
    <filter x="607px" y="55px" width="44px" height="47px" filterUnits="userSpaceOnUse" id="filter14">
      <feOffset dx="0" dy="0" in="SourceAlpha" result="shadowOffsetInner" />
      <feGaussianBlur stdDeviation="5" in="shadowOffsetInner" result="shadowGaussian" />
      <feComposite in2="shadowGaussian" operator="atop" in="SourceAlpha" result="shadowComposite" />
      <feColorMatrix type="matrix" values="0 0 0 0 1  0 0 0 0 1  0 0 0 0 1  0 0 0 1 0  " in="shadowComposite" />
    </filter>
    <g id="widget15">
      <path d="M 1.85678660491626 26.6274772253041  C 1.4563591022444 26.7047025293908  1.05593159957251 26.5502519212174  0.735589597434989 26.1641254007838  C 0.415247595297478 25.8552241844369  0.174991093694348 25.3918723599165  0.174991093694348 24.9285205353962  L 0.174991093694348 2.68763295842027  C 0.174991093694348 1.99260522163978  0.415247595297478 1.45202809303272  0.89576059850375 0.911450964425668  C 1.37627360171002 0.448099139905337  2.01695760598506 0.139197923558449  2.65764161026008 0.139197923558449  L 3.13815461346635 0.139197923558449  C 3.93900961881013 0.139197923558449  4.65977912361953 0.525324443992059  5.30046312789457 1.29757748485928  L 19.5556822230139 21.2217059392336  C 19.7158532240827 21.376156547407  19.7959387246171 21.4533818514937  19.8760242251514 21.4533818514937  C 19.9561097256858 21.4533818514937  19.9561097256858 21.4533818514937  20.0361952262202 21.376156547407  C 20.1162807267546 21.2989312433203  20.1162807267546 21.2217059392336  20 21.1444806351468  L 20 1.91537991755305  C 20.1162807267546 1.45202809303272  20.2764517278233 1.06590157259911  20.6768792304952 0.679775052165503  C 20.9972212326327 0.293648531731892  21.477734235839 0.139197923558449  21.9582472390452 0.139197923558449  C 22.4387602422515 0.139197923558449  22.8391877449234 0.293648531731892  23.2396152475953 0.679775052165503  C 23.6400427502672 1.06590157259911  23.8002137513359 1.45202809303272  23.8002137513359 1.91537991755305  L 23.8002137513359 24.2334927986157  C 23.8002137513359 24.9285205353962  23.5599572497328 25.4690976640033  22.9993587459921 25.9324494885236  C 22.5188457427859 26.3958013130439  21.8781617385109 26.6274772253041  21.1573922337014 26.6274772253041  L 20.6768792304952 26.6274772253041  C 20.2764517278233 26.6274772253041  19.8760242251514 26.5502519212174  19.4755967224795 26.3185760089572  C 19.0751692198076 26.1641254007838  18.8349127182045 25.8552241844369  18.5946562166013 25.6235482721767  L 4.25935162094761 5.62219451371571  C 4.09918061987885 5.46774390554227  4.01909511934448 5.39051860145555  3.9390096188101 5.39051860145555  C 3.85892411827572 5.39051860145555  3.85892411827572 5.39051860145555  3.77883861774134 5.46774390554227  C 3.69875311720696 5.54496920962899  3.69875311720696 5.62219451371571  4 5.69941981780244  L 4 24.8512952313095  C 3.69875311720696 25.3146470558298  3.53858211613821 25.7007735762634  3.13815461346632 26.086900096697  C 2.73772711079442 26.3958013130439  2.33729960812253 26.6274772253041  1.85678660491626 26.6274772253041  Z " fill-rule="nonzero" fill="#3e3a39" stroke="none" transform="matrix(1 0 0 1 617 65 )" />
    </g>
  </defs>
  <g transform="matrix(1 0 0 1 -607 -55 )">
    <use xlink:href="#widget15" filter="url(#filter14)" />
    <use xlink:href="#widget15" />
  </g>
</svg>