<?xml version="1.0" encoding="utf-8"?>
<svg version="1.1" xmlns:xlink="http://www.w3.org/1999/xlink" width="44px" height="47px" xmlns="http://www.w3.org/2000/svg">
  <defs>
    <filter x="634px" y="55px" width="44px" height="47px" filterUnits="userSpaceOnUse" id="filter16">
      <feOffset dx="0" dy="0" in="SourceAlpha" result="shadowOffsetInner" />
      <feGaussianBlur stdDeviation="5" in="shadowOffsetInner" result="shadowGaussian" />
      <feComposite in2="shadowGaussian" operator="atop" in="SourceAlpha" result="shadowComposite" />
      <feColorMatrix type="matrix" values="0 0 0 0 1  0 0 0 0 1  0 0 0 0 1  0 0 0 1 0  " in="shadowComposite" />
    </filter>
    <g id="widget17">
      <path d="M 13.6584253651586 26.936378441651  C 11.0956893480584 26.8591531375643  8.77320983256147 26.3185760089572  6.77107231920202 25.2374217517431  C 4.68884930530819 24.156267494529  3.08713929462062 22.6117614127945  1.88585678660495 20.526678202453  C 0.684574278589275 18.5188202961983  0.123975774848623 16.1248358695099  0.123975774848623 13.4219502264746  C 0.123975774848623 10.7190645834394  0.684574278589275 8.32508015675098  1.88585678660495 6.31722225049621  C 3.08713929462062 4.30936434424143  4.68884930530819 2.764858262507  6.69098681866765 1.68370400529289  C 8.77320983256147 0.602549748078779  11.0956893480585 0.0619726194717262  13.6584253651586 0.0619726194717262  C 15.3402208763805 0.0619726194717262  16.8618453865337 0.21642322764517  18.3033843961525 0.60254974807878  C 19.6648379052369 0.98867626851239  21.1063769148557 1.52925339711944  22.5479159244746 2.37873174207339  C 23.1085144282152 2.68763295842027  23.4288564303527 3.15098478294061  23.4288564303527 3.8460125197211  C 23.4288564303527 4.23213904015471  23.268685429284 4.5410402565016  22.9483434271465 4.84994147284849  C 22.6280014250089 5.15884268919538  22.3076594228714 5.31329329736882  21.8271464196652 5.31329329736882  C 21.5068044175276 5.31329329736882  21.3466334164589 5.2360679932821  21.1063769148557 5.15884268919538  C 19.9050944068401 4.5410402565016  18.7838973993588 4.15491373606799  17.6627003918775 3.84601251972111  C 16.5415033843962 3.53711130337422  15.3402208763805 3.38266069520077  13.9787673672961 3.38266069520077  C 11.7363733523335 3.38266069520077  9.89440684004278 3.84601251972111  8.37278232988958 4.69549086467505  C 6.85115781973639 5.54496920962899  5.64987531172071 6.78057407501654  4.84902030637693 8.24785485266426  C 4.04816530103315 9.7923609343987  3.64773779836125 11.4913176243066  3.64773779836125 13.4991755305614  C 3.64773779836125 15.5070334368161  4.04816530103315 17.205990126724  4.84902030637693 18.6732709043717  C 5.64987531172071 20.2177769861062  6.85115781973639 21.4533818514937  8.37278232988958 22.3028601964477  C 9.97449234057715 23.1523385414016  11.8164588528679 23.6156903659219  13.9787673672961 23.6156903659219  C 15.3402208763805 23.6156903659219  16.5415033843962 23.4612397577485  17.6627003918775 23.1523385414016  C 18.7838973993588 22.8434373250547  19.9050944068401 22.4573108046211  21.1063769148557 21.8395083719273  C 21.2665479159245 21.7622830678406  21.5068044175276 21.6850577637539  21.8271464196652 21.6850577637539  C 22.3076594228714 21.6850577637539  22.7080869255433 21.8395083719273  22.9483434271465 22.1484095882742  C 23.268685429284 22.4573108046211  23.4288564303527 22.766212020968  23.4288564303527 23.1523385414016  C 23.4288564303527 23.8473662781821  23.1085144282152 24.3107181027024  22.5479159244746 24.6196193190493  C 21.1063769148557 25.3918723599165  19.664837905237 26.0096747926103  18.3033843961525 26.3958013130439  C 16.9419308870681 26.7819278334775  15.4203063769149 26.936378441651  13.6584253651586 26.936378441651  Z " fill-rule="nonzero" fill="#3e3a39" stroke="none" transform="matrix(1 0 0 1 644 65 )" />
    </g>
  </defs>
  <g transform="matrix(1 0 0 1 -634 -55 )">
    <use xlink:href="#widget17" filter="url(#filter16)" />
    <use xlink:href="#widget17" />
  </g>
</svg>