<?xml version="1.0" encoding="utf-8"?>
<svg version="1.1" xmlns:xlink="http://www.w3.org/1999/xlink" width="44px" height="47px" xmlns="http://www.w3.org/2000/svg">
  <defs>
    <filter x="655px" y="55px" width="44px" height="47px" filterUnits="userSpaceOnUse" id="filter18">
      <feOffset dx="0" dy="0" in="SourceAlpha" result="shadowOffsetInner" />
      <feGaussianBlur stdDeviation="5" in="shadowOffsetInner" result="shadowGaussian" />
      <feComposite in2="shadowGaussian" operator="atop" in="SourceAlpha" result="shadowComposite" />
      <feColorMatrix type="matrix" values="0 0 0 0 1  0 0 0 0 1  0 0 0 0 1  0 0 0 1 0  " in="shadowComposite" />
    </filter>
    <g id="widget19">
      <path d="M 11.8403990024938 26.7819278334775  C 11.3598859992875 26.7047025293908  10.9594584966156 26.5502519212174  10.6391164944781 26.1641254007838  C 10.3187744923406 25.8552241844369  10.0785179907375 25.3918723599165  10 24.9285205353962  L 10 3.61433660746094  L 2.23013893836837 3.61433660746094  C 1.74962593516211 3.61433660746094  1.34919843249022 3.45988599928749  1.0288564303527 3.15098478294061  C 0.708514428215176 2.84208356659372  0.548343427146438 2.45595704616011  0.548343427146438 1.99260522163978  C 0.548343427146438 1.52925339711944  0.708514428215176 1.14312687668583  1.0288564303527 0.834225660338946  C 1.34919843249022 0.525324443992058  1.74962593516211 0.370873835818614  2.23013893836837 0.370873835818614  L 21.5307445671536 0.370873835818614  C 22.0112575703598 0.370873835818614  22.4116850730317 0.525324443992059  22.7320270751692 0.834225660338946  C 23.0523690773068 1.14312687668583  23.2125400783755 1.52925339711944  23.2125400783755 1.99260522163978  C 23.2125400783755 2.45595704616011  23.0523690773068 2.84208356659372  22.7320270751692 3.15098478294061  C 22.4116850730317 3.45988599928749  22.0112575703598 3.61433660746094  21.5307445671536 3.61433660746094  L 13.6823655147845 3.61433660746094  L 13.6823655147845 25.0057458394829  C 13.6823655147845 25.4690976640033  13.5221945137157 25.8552241844369  13.1217670110438 26.2413507048705  C 12.7213395083719 26.5502519212174  12.3209120057001 26.7819278334775  11.8403990024938 26.7819278334775  Z " fill-rule="nonzero" fill="#3e3a39" stroke="none" transform="matrix(1 0 0 1 665 65 )" />
    </g>
  </defs>
  <g transform="matrix(1 0 0 1 -655 -55 )">
    <use xlink:href="#widget19" filter="url(#filter18)" />
    <use xlink:href="#widget19" />
  </g>
</svg>