<?xml version="1.0" encoding="utf-8"?>
<svg version="1.1" xmlns:xlink="http://www.w3.org/1999/xlink" width="25px" height="47px" xmlns="http://www.w3.org/2000/svg">
  <defs>
    <filter x="679px" y="55px" width="25px" height="47px" filterUnits="userSpaceOnUse" id="filter20">
      <feOffset dx="0" dy="0" in="SourceAlpha" result="shadowOffsetInner" />
      <feGaussianBlur stdDeviation="5" in="shadowOffsetInner" result="shadowGaussian" />
      <feComposite in2="shadowGaussian" operator="atop" in="SourceAlpha" result="shadowComposite" />
      <feColorMatrix type="matrix" values="0 0 0 0 1  0 0 0 0 1  0 0 0 0 1  0 0 0 1 0  " in="shadowComposite" />
    </filter>
    <g id="widget21">
      <path d="M 2.52048450302814 26.7047025293908  C 1.91984324902032 26.7047025293908  1.41930887068045 26.5502519212174  0.918774492340589 26.1641254007838  C 0.518346989668686 25.8552241844369  0.218026362664801 25.3918723599165  0.218026362664801 24.9285205353962  L 0.218026362664801 1.91537991755305  C 0.218026362664801 1.45202809303272  0.418240114000724 1.06590157259911  0.918774492340589 0.679775052165503  C 1.31920199501249 0.293648531731892  1.91984324902032 0.139197923558449  2.52048450302814 0.139197923558449  C 3.121125757036 0.139197923558449  3.62166013537586 0.293648531731892  4.12219451371573 0.679775052165503  C 4.62272889205559 1.06590157259911  4.82294264339151 1.45202809303272  4.82294264339151 1.91537991755305  L 4.82294264339151 24.9285205353962  C 4.82294264339151 25.3918723599165  4.62272889205559 25.7779988803501  4.12219451371573 26.1641254007838  C 3.62166013537586 26.4730266171306  3.121125757036 26.7047025293908  2.52048450302814 26.7047025293908  Z " fill-rule="nonzero" fill="#3e3a39" stroke="none" transform="matrix(1 0 0 1 689 65 )" />
    </g>
  </defs>
  <g transform="matrix(1 0 0 1 -679 -55 )">
    <use xlink:href="#widget21" filter="url(#filter20)" />
    <use xlink:href="#widget21" />
  </g>
</svg>