<?xml version="1.0" encoding="utf-8"?>
<svg version="1.1" xmlns:xlink="http://www.w3.org/1999/xlink" width="47px" height="47px" xmlns="http://www.w3.org/2000/svg">
  <defs>
    <filter x="686px" y="55px" width="47px" height="47px" filterUnits="userSpaceOnUse" id="filter22">
      <feOffset dx="0" dy="0" in="SourceAlpha" result="shadowOffsetInner" />
      <feGaussianBlur stdDeviation="5" in="shadowOffsetInner" result="shadowGaussian" />
      <feComposite in2="shadowGaussian" operator="atop" in="SourceAlpha" result="shadowComposite" />
      <feColorMatrix type="matrix" values="0 0 0 0 1  0 0 0 0 1  0 0 0 0 1  0 0 0 1 0  " in="shadowComposite" />
    </filter>
    <g id="widget23">
      <path d="M 13.0722377729147 26.7879853936587  C 10.6010280421396 26.8630655504097  8.28426891953791 26.3375044531528  6.27641101328315 25.2113021018881  C 4.3457784111151 24.0850997506234  2.80127232938066 22.5834966156038  1.72011807216654 20.5563323833274  C 0.638963814952429 18.6042483078019  0.098386686345393 16.3518436052725  0.0211613822586799 13.7991182757392  C 0.098386686345393 11.2463929462059  0.638963814952451 8.99398824367652  1.72011807216654 7.04190416815105  C 2.80127232938066 5.08982009262557  4.3457784111151 3.513136800855  6.27641101328315 2.3869344495903  C 8.28426891953791 1.26073209832561  10.5238027380529 0.735171001068751  13.1494630770014 0.735171001068751  C 15.77512341595 0.735171001068751  18.0918825385516 1.26073209832561  20.0225151407197 2.3869344495903  C 21.9531477428877 3.513136800855  23.4976538246222 5.01473993587459  24.5788080818363 7.04190416815105  C 25.6599623390504 8.99398824367652  26.2005394676574 11.2463929462059  26.2777647717441 13.7991182757392  C 26.2005394676574 16.3518436052725  25.6599623390504 18.5291681510509  24.5788080818363 20.4812522265764  C 23.4976538246222 22.5084164588529  21.9531477428877 24.0850997506234  19.945289836633 25.1362219451372  C 17.9374319303782 26.2624242964018  15.6978981118632 26.7879853936587  13.0722377729147 26.7879853936587  Z M 13.1494630770014 23.7847791236195  C 15.2345462873429 23.7096989668685  16.9335029772508 23.2592180263627  18.3235584508118 22.4333363021019  C 19.7908392284595 21.6074545778411  20.8719934856736 20.4061720698254  21.6442465265408 18.9045689348058  C 22.416499567408 17.4029657997863  22.8026260878416 15.7512023512647  22.8026260878416 13.7991182757392  C 22.8026260878416 11.9221143569647  22.416499567408 10.1952707516922  21.6442465265408 8.6936676166726  C 20.8719934856736 7.19206448165301  19.7136139243728 5.99078197363733  18.246333146725 5.16490024937656  C 16.7790523690773 4.33901852511578  15.0800956791695 3.8885375846099  13.1494630770014 3.8885375846099  C 11.1416051707466 3.8885375846099  9.44264848083874 4.33901852511578  7.97536770319103 5.16490024937656  C 6.50808692554333 5.99078197363733  5.42693266832921 7.19206448165301  4.654679627462 8.6936676166726  C 3.88242658659478 10.1952707516922  3.49630006616117 11.8470342002138  3.49630006616117 13.7991182757392  C 3.49630006616117 15.6761221945137  3.88242658659478 17.4029657997863  4.654679627462 18.9045689348058  C 5.42693266832921 20.4812522265764  6.58531222963004 21.6825347345921  8.05259300727777 22.5084164588529  C 9.51987378492547 23.3342981831137  11.2188304748334 23.7847791236195  13.1494630770014 23.7847791236195  Z " fill-rule="nonzero" fill="#3e3a39" stroke="none" transform="matrix(1 0 0 1 696 65 )" />
    </g>
  </defs>
  <g transform="matrix(1 0 0 1 -686 -55 )">
    <use xlink:href="#widget23" filter="url(#filter22)" />
    <use xlink:href="#widget23" />
  </g>
</svg>