<?xml version="1.0" encoding="utf-8"?>
<svg version="1.1" xmlns:xlink="http://www.w3.org/1999/xlink" width="44px" height="47px" xmlns="http://www.w3.org/2000/svg">
  <defs>
    <filter x="715px" y="55px" width="44px" height="47px" filterUnits="userSpaceOnUse" id="filter24">
      <feOffset dx="0" dy="0" in="SourceAlpha" result="shadowOffsetInner" />
      <feGaussianBlur stdDeviation="5" in="shadowOffsetInner" result="shadowGaussian" />
      <feComposite in2="shadowGaussian" operator="atop" in="SourceAlpha" result="shadowComposite" />
      <feColorMatrix type="matrix" values="0 0 0 0 1  0 0 0 0 1  0 0 0 0 1  0 0 0 1 0  " in="shadowComposite" />
    </filter>
    <g id="widget25">
      <path d="M 1.97648735304599 26.6274772253041  C 1.65614535090849 26.7047025293908  1.2557178482366 26.5502519212174  0.855290345564708 26.1641254007838  C 0.534948343427186 25.8552241844369  0.294691841824056 25.3918723599165  0.294691841824056 24.9285205353962  L 0.294691841824056 2.68763295842027  C 0.294691841824056 1.99260522163978  0.534948343427209 1.45202809303272  1.01546134663347 0.911450964425668  C 1.49597434983973 0.448099139905337  2.13665835411477 0.139197923558449  2.77734235838977 0.139197923558449  L 3.25785536159606 0.139197923558449  C 4.05871036693984 0.139197923558449  4.77947987174921 0.525324443992059  5.42016387602425 1.29757748485928  L 19.6753829711436 21.2217059392336  C 19.8355539722123 21.376156547407  19.9156394727468 21.4533818514937  19.9957249732811 21.4533818514937  C 20.0758104738155 21.4533818514937  20.0758104738155 21.4533818514937  20.1558959743499 21.376156547407  C 20.2359814748842 21.2989312433203  20.2359814748842 21.2217059392336  20 21.1444806351468  L 20 1.91537991755305  C 20.2359814748842 1.45202809303272  20.396152475953 1.06590157259911  20.7965799786249 0.679775052165503  C 21.1169219807624 0.293648531731892  21.5974349839687 0.139197923558449  22.077947987175 0.139197923558449  C 22.5584609903813 0.139197923558449  22.9588884930532 0.293648531731892  23.359315995725 0.679775052165503  C 23.7597434983969 1.06590157259911  23.9199144994657 1.45202809303272  24 1.91537991755305  L 24 24.2334927986157  C 23.9199144994657 24.9285205353962  23.6796579978625 25.4690976640033  23.1190594941219 25.9324494885236  C 22.6385464909156 26.3958013130439  21.9978624866406 26.6274772253041  21.2770929818312 26.6274772253041  L 20.7965799786249 26.6274772253041  C 20.396152475953 26.6274772253041  19.9957249732811 26.5502519212174  19.5952974706092 26.3185760089572  C 19.1948699679373 26.1641254007838  18.9546134663342 25.8552241844369  18.714356964731 25.6235482721767  L 4.37905236907732 5.62219451371571  C 4.21888136800858 5.46774390554227  4.13879586747416 5.39051860145555  4.05871036693979 5.39051860145555  C 3.97862486640543 5.39051860145555  3.97862486640543 5.39051860145555  3.89853936587106 5.46774390554227  C 3.81845386533669 5.54496920962899  3.81845386533669 5.62219451371571  4 5.69941981780244  L 4 24.8512952313095  C 3.81845386533669 25.3146470558298  3.65828286426795 25.7007735762634  3.25785536159606 26.086900096697  C 2.85742785892417 26.3958013130439  2.45700035625227 26.6274772253041  1.97648735304599 26.6274772253041  Z " fill-rule="nonzero" fill="#3e3a39" stroke="none" transform="matrix(1 0 0 1 725 65 )" />
    </g>
  </defs>
  <g transform="matrix(1 0 0 1 -715 -55 )">
    <use xlink:href="#widget25" filter="url(#filter24)" />
    <use xlink:href="#widget25" />
  </g>
</svg>