<?xml version="1.0" encoding="utf-8"?>
<svg version="1.1" xmlns:xlink="http://www.w3.org/1999/xlink" width="36px" height="36px" xmlns="http://www.w3.org/2000/svg">
  <defs>
    <filter x="544px" y="66px" width="36px" height="36px" filterUnits="userSpaceOnUse" id="filter32">
      <feOffset dx="0" dy="0" in="SourceAlpha" result="shadowOffsetInner" />
      <feGaussianBlur stdDeviation="5" in="shadowOffsetInner" result="shadowGaussian" />
      <feComposite in2="shadowGaussian" operator="atop" in="SourceAlpha" result="shadowComposite" />
      <feColorMatrix type="matrix" values="0 0 0 0 1  0 0 0 0 1  0 0 0 0 1  0 0 0 1 0  " in="shadowComposite" />
    </filter>
    <g id="widget33">
      <path d="M 15.4812967581047 14.4896262744499  L 9.95539722123264 15.4811610429708  C 9.31471321695761 15.4048891377  8.67402921268258 15.3286172324291  7.95325970787318 15.1760734218875  C 6.51172069825437 14.8709858008041  5.15026718916994 14.4896262744499  3.94898468115426 13.8794510322832  C 2.58753117206983 13.1930038848457  1.54641966512291 12.2777410215957  0.905735660847881 11.2862062530748  C 0.345137157107234 10.2183995792831  0.0247951549697206 9.07432100022054  0.0247951549697206 7.77769861061632  C 0.0247951549697206 6.55734812628293  0.345137157107234 5.41326954722039  1.06590666191664 4.34546287342867  C 1.78667616672604 3.27765619963696  2.82778767367296 2.43866524165776  4.10915568222302 1.75221809422023  C 5.15026718916994 1.21831475732438  6.43163519771999 0.836955230970196  7.8731742073388 0.531867609886847  C 9.39479871749199 0.226779988803503  10.8363377271108 0.150508083532665  12.1977912361952 0.150508083532665  L 12.5982187388671 0.150508083532665  L 15.4812967581047 14.4896262744499  Z " fill-rule="nonzero" fill="#036eb7" stroke="none" transform="matrix(1 0 0 1 554 76 )" />
    </g>
  </defs>
  <g transform="matrix(1 0 0 1 -544 -66 )">
    <use xlink:href="#widget33" filter="url(#filter32)" />
    <use xlink:href="#widget33" />
  </g>
</svg>