<?xml version="1.0" encoding="utf-8"?>
<svg version="1.1" xmlns:xlink="http://www.w3.org/1999/xlink" width="15px" height="15px" viewBox="1235 326  15 15" xmlns="http://www.w3.org/2000/svg">
  <path d="M 1235.5 328  A 1.5 1.5 0 0 1 1237 326.5 L 1248 326.5  A 1.5 1.5 0 0 1 1249.5 328 L 1249.5 339  A 1.5 1.5 0 0 1 1248 340.5 L 1237 340.5  A 1.5 1.5 0 0 1 1235.5 339 L 1235.5 328  Z " fill-rule="nonzero" fill="#ffffff" stroke="none" />
  <path d="M 1235.5 328  A 1.5 1.5 0 0 1 1237 326.5 L 1248 326.5  A 1.5 1.5 0 0 1 1249.5 328 L 1249.5 339  A 1.5 1.5 0 0 1 1248 340.5 L 1237 340.5  A 1.5 1.5 0 0 1 1235.5 339 L 1235.5 328  Z " stroke-width="1" stroke="#aaaaaa" fill="none" />
</svg>