<?xml version="1.0" encoding="utf-8"?>
<svg version="1.1" xmlns:xlink="http://www.w3.org/1999/xlink" width="15px" height="15px" viewBox="1235 366  15 15" xmlns="http://www.w3.org/2000/svg">
  <path d="M 1235.5 368  A 1.5 1.5 0 0 1 1237 366.5 L 1248 366.5  A 1.5 1.5 0 0 1 1249.5 368 L 1249.5 379  A 1.5 1.5 0 0 1 1248 380.5 L 1237 380.5  A 1.5 1.5 0 0 1 1235.5 379 L 1235.5 368  Z " fill-rule="nonzero" fill="#ffffff" stroke="none" />
  <path d="M 1235.5 368  A 1.5 1.5 0 0 1 1237 366.5 L 1248 366.5  A 1.5 1.5 0 0 1 1249.5 368 L 1249.5 379  A 1.5 1.5 0 0 1 1248 380.5 L 1237 380.5  A 1.5 1.5 0 0 1 1235.5 379 L 1235.5 368  Z " stroke-width="1" stroke="#aaaaaa" fill="none" />
</svg>