<?xml version="1.0" encoding="utf-8"?>
<svg version="1.1" xmlns:xlink="http://www.w3.org/1999/xlink" width="352px" height="199px" xmlns="http://www.w3.org/2000/svg">
  <g transform="matrix(1 0 0 1 -178 -414 )">
    <path d="M 178 414  L 530 414  L 530 613  L 178 613  L 178 414  " fill-rule="nonzero" fill="#cccccc" stroke="none" />
    <path d="M 192 428  L 516 428  L 516 599  L 192 599  L 192 428  " fill-rule="nonzero" fill="#ffffff" stroke="none" />
    <path d="M 375.965 473.7  C 367.607 473.7  361.04 467.133  361.04 458.775  C 361.04 450.417  367.607 443.85  375.965 443.85  C 384.323 443.85  390.89 450.417  390.89 458.775  C 390.89 467.133  384.323 473.7  375.965 473.7  " fill-rule="nonzero" fill="#cccccc" stroke="none" />
    <path d="M 197 594  L 197 505.45  L 275.5 465.2  L 385.4 539.388068181818  L 448.2 489.35  L 511 539.388068181818  L 511 594  L 197 594  " fill-rule="nonzero" fill="#169bd5" stroke="none" />
  </g>
</svg>