<?xml version="1.0" encoding="utf-8"?>
<svg version="1.1" xmlns:xlink="http://www.w3.org/1999/xlink" width="12px" height="12px" viewBox="1182 254  12 12" xmlns="http://www.w3.org/2000/svg">
  <path d="M 1182.5 256  A 1.5 1.5 0 0 1 1184 254.5 L 1192 254.5  A 1.5 1.5 0 0 1 1193.5 256 L 1193.5 264  A 1.5 1.5 0 0 1 1192 265.5 L 1184 265.5  A 1.5 1.5 0 0 1 1182.5 264 L 1182.5 256  Z " fill-rule="nonzero" fill="#f0f0f0" stroke="none" />
  <path d="M 1182.5 256  A 1.5 1.5 0 0 1 1184 254.5 L 1192 254.5  A 1.5 1.5 0 0 1 1193.5 256 L 1193.5 264  A 1.5 1.5 0 0 1 1192 265.5 L 1184 265.5  A 1.5 1.5 0 0 1 1182.5 264 L 1182.5 256  Z " stroke-width="1" stroke="#aaaaaa" fill="none" />
</svg>