<?xml version="1.0" encoding="utf-8"?>
<svg version="1.1" xmlns:xlink="http://www.w3.org/1999/xlink" width="15px" height="15px" viewBox="1235 331  15 15" xmlns="http://www.w3.org/2000/svg">
  <path d="M 1235.5 333  A 1.5 1.5 0 0 1 1237 331.5 L 1248 331.5  A 1.5 1.5 0 0 1 1249.5 333 L 1249.5 344  A 1.5 1.5 0 0 1 1248 345.5 L 1237 345.5  A 1.5 1.5 0 0 1 1235.5 344 L 1235.5 333  Z " fill-rule="nonzero" fill="#f0f0f0" stroke="none" />
  <path d="M 1235.5 333  A 1.5 1.5 0 0 1 1237 331.5 L 1248 331.5  A 1.5 1.5 0 0 1 1249.5 333 L 1249.5 344  A 1.5 1.5 0 0 1 1248 345.5 L 1237 345.5  A 1.5 1.5 0 0 1 1235.5 344 L 1235.5 333  Z " stroke-width="1" stroke="#aaaaaa" fill="none" />
</svg>