<?xml version="1.0" encoding="utf-8"?>
<svg version="1.1" xmlns:xlink="http://www.w3.org/1999/xlink" width="15px" height="15px" viewBox="1235 411  15 15" xmlns="http://www.w3.org/2000/svg">
  <path d="M 1235.5 413  A 1.5 1.5 0 0 1 1237 411.5 L 1248 411.5  A 1.5 1.5 0 0 1 1249.5 413 L 1249.5 424  A 1.5 1.5 0 0 1 1248 425.5 L 1237 425.5  A 1.5 1.5 0 0 1 1235.5 424 L 1235.5 413  Z " fill-rule="nonzero" fill="#ffffff" stroke="none" />
  <path d="M 1235.5 413  A 1.5 1.5 0 0 1 1237 411.5 L 1248 411.5  A 1.5 1.5 0 0 1 1249.5 413 L 1249.5 424  A 1.5 1.5 0 0 1 1248 425.5 L 1237 425.5  A 1.5 1.5 0 0 1 1235.5 424 L 1235.5 413  Z " stroke-width="1" stroke="#aaaaaa" fill="none" />
  <path d="M 1238.21428571429 418.5  L 1241.42857142857 421.714285714286  " stroke-width="3.21428571428571" stroke="#aaaaaa" fill="none" />
  <path d="M 1241.42857142857 421.714285714286  L 1246.78571428571 414.214285714286  " stroke-width="3.21428571428571" stroke="#aaaaaa" fill="none" />
</svg>