<?xml version="1.0" encoding="utf-8"?>
<svg version="1.1" xmlns:xlink="http://www.w3.org/1999/xlink" width="15px" height="15px" viewBox="1235 691  15 15" xmlns="http://www.w3.org/2000/svg">
  <path d="M 1235.5 693  A 1.5 1.5 0 0 1 1237 691.5 L 1248 691.5  A 1.5 1.5 0 0 1 1249.5 693 L 1249.5 704  A 1.5 1.5 0 0 1 1248 705.5 L 1237 705.5  A 1.5 1.5 0 0 1 1235.5 704 L 1235.5 693  Z " fill-rule="nonzero" fill="#ffffff" stroke="none" />
  <path d="M 1235.5 693  A 1.5 1.5 0 0 1 1237 691.5 L 1248 691.5  A 1.5 1.5 0 0 1 1249.5 693 L 1249.5 704  A 1.5 1.5 0 0 1 1248 705.5 L 1237 705.5  A 1.5 1.5 0 0 1 1235.5 704 L 1235.5 693  Z " stroke-width="1" stroke="#aaaaaa" fill="none" />
</svg>