<?xml version="1.0" encoding="utf-8"?>
<svg version="1.1" xmlns:xlink="http://www.w3.org/1999/xlink" width="15px" height="15px" viewBox="1235 531  15 15" xmlns="http://www.w3.org/2000/svg">
  <path d="M 1235.5 533  A 1.5 1.5 0 0 1 1237 531.5 L 1248 531.5  A 1.5 1.5 0 0 1 1249.5 533 L 1249.5 544  A 1.5 1.5 0 0 1 1248 545.5 L 1237 545.5  A 1.5 1.5 0 0 1 1235.5 544 L 1235.5 533  Z " fill-rule="nonzero" fill="#ffffff" stroke="none" />
  <path d="M 1235.5 533  A 1.5 1.5 0 0 1 1237 531.5 L 1248 531.5  A 1.5 1.5 0 0 1 1249.5 533 L 1249.5 544  A 1.5 1.5 0 0 1 1248 545.5 L 1237 545.5  A 1.5 1.5 0 0 1 1235.5 544 L 1235.5 533  Z " stroke-width="1" stroke="#aaaaaa" fill="none" />
</svg>