<?xml version="1.0" encoding="utf-8"?>
<svg version="1.1" xmlns:xlink="http://www.w3.org/1999/xlink" width="15px" height="15px" viewBox="1235 571  15 15" xmlns="http://www.w3.org/2000/svg">
  <path d="M 1235.5 573  A 1.5 1.5 0 0 1 1237 571.5 L 1248 571.5  A 1.5 1.5 0 0 1 1249.5 573 L 1249.5 584  A 1.5 1.5 0 0 1 1248 585.5 L 1237 585.5  A 1.5 1.5 0 0 1 1235.5 584 L 1235.5 573  Z " fill-rule="nonzero" fill="#ffffff" stroke="none" />
  <path d="M 1235.5 573  A 1.5 1.5 0 0 1 1237 571.5 L 1248 571.5  A 1.5 1.5 0 0 1 1249.5 573 L 1249.5 584  A 1.5 1.5 0 0 1 1248 585.5 L 1237 585.5  A 1.5 1.5 0 0 1 1235.5 584 L 1235.5 573  Z " stroke-width="1" stroke="#aaaaaa" fill="none" />
  <path d="M 1238.21428571429 578.5  L 1241.42857142857 581.714285714286  " stroke-width="3.21428571428571" stroke="#aaaaaa" fill="none" />
  <path d="M 1241.42857142857 581.714285714286  L 1246.78571428571 574.214285714286  " stroke-width="3.21428571428571" stroke="#aaaaaa" fill="none" />
</svg>