<?xml version="1.0" encoding="utf-8"?>
<svg version="1.1" xmlns:xlink="http://www.w3.org/1999/xlink" width="15px" height="15px" viewBox="1235 248  15 15" xmlns="http://www.w3.org/2000/svg">
  <path d="M 1235.5 250  A 1.5 1.5 0 0 1 1237 248.5 L 1248 248.5  A 1.5 1.5 0 0 1 1249.5 250 L 1249.5 261  A 1.5 1.5 0 0 1 1248 262.5 L 1237 262.5  A 1.5 1.5 0 0 1 1235.5 261 L 1235.5 250  Z " fill-rule="nonzero" fill="#ffffff" stroke="none" />
  <path d="M 1235.5 250  A 1.5 1.5 0 0 1 1237 248.5 L 1248 248.5  A 1.5 1.5 0 0 1 1249.5 250 L 1249.5 261  A 1.5 1.5 0 0 1 1248 262.5 L 1237 262.5  A 1.5 1.5 0 0 1 1235.5 261 L 1235.5 250  Z " stroke-width="1" stroke="#aaaaaa" fill="none" />
  <path d="M 1238.21428571429 255.5  L 1241.42857142857 258.714285714286  " stroke-width="3.21428571428571" stroke="#aaaaaa" fill="none" />
  <path d="M 1241.42857142857 258.714285714286  L 1246.78571428571 251.214285714286  " stroke-width="3.21428571428571" stroke="#aaaaaa" fill="none" />
</svg>