<?xml version="1.0" encoding="utf-8"?>
<svg version="1.1" xmlns:xlink="http://www.w3.org/1999/xlink" width="15px" height="15px" viewBox="1235 405  15 15" xmlns="http://www.w3.org/2000/svg">
  <path d="M 1235.5 407  A 1.5 1.5 0 0 1 1237 405.5 L 1248 405.5  A 1.5 1.5 0 0 1 1249.5 407 L 1249.5 418  A 1.5 1.5 0 0 1 1248 419.5 L 1237 419.5  A 1.5 1.5 0 0 1 1235.5 418 L 1235.5 407  Z " fill-rule="nonzero" fill="#ffffff" stroke="none" />
  <path d="M 1235.5 407  A 1.5 1.5 0 0 1 1237 405.5 L 1248 405.5  A 1.5 1.5 0 0 1 1249.5 407 L 1249.5 418  A 1.5 1.5 0 0 1 1248 419.5 L 1237 419.5  A 1.5 1.5 0 0 1 1235.5 418 L 1235.5 407  Z " stroke-width="1" stroke="#aaaaaa" fill="none" />
  <path d="M 1238.21428571429 412.5  L 1241.42857142857 415.714285714286  " stroke-width="3.21428571428571" stroke="#aaaaaa" fill="none" />
  <path d="M 1241.42857142857 415.714285714286  L 1246.78571428571 408.214285714286  " stroke-width="3.21428571428571" stroke="#aaaaaa" fill="none" />
</svg>