<?xml version="1.0" encoding="utf-8"?>
<svg version="1.1" xmlns:xlink="http://www.w3.org/1999/xlink" width="12px" height="12px" viewBox="380 362.5  12 12" xmlns="http://www.w3.org/2000/svg">
  <path d="M 380.5 364.5  A 1.5 1.5 0 0 1 382 363 L 390 363  A 1.5 1.5 0 0 1 391.5 364.5 L 391.5 372.5  A 1.5 1.5 0 0 1 390 374 L 382 374  A 1.5 1.5 0 0 1 380.5 372.5 L 380.5 364.5  Z " fill-rule="nonzero" fill="#ffffff" stroke="none" />
  <path d="M 380.5 364.5  A 1.5 1.5 0 0 1 382 363 L 390 363  A 1.5 1.5 0 0 1 391.5 364.5 L 391.5 372.5  A 1.5 1.5 0 0 1 390 374 L 382 374  A 1.5 1.5 0 0 1 380.5 372.5 L 380.5 364.5  Z " stroke-width="1" stroke="#797979" fill="none" />
  <path d="M 382.571428571429 368.5  L 385.142857142857 371.071428571429  " stroke-width="2.57142857142857" stroke="#797979" fill="none" />
  <path d="M 385.142857142857 371.071428571429  L 389.428571428571 365.071428571429  " stroke-width="2.57142857142857" stroke="#797979" fill="none" />
</svg>