<?xml version="1.0" encoding="utf-8"?>
<svg version="1.1" xmlns:xlink="http://www.w3.org/1999/xlink" width="12px" height="12px" viewBox="1182 168  12 12" xmlns="http://www.w3.org/2000/svg">
  <path d="M 1182.5 170  A 1.5 1.5 0 0 1 1184 168.5 L 1192 168.5  A 1.5 1.5 0 0 1 1193.5 170 L 1193.5 178  A 1.5 1.5 0 0 1 1192 179.5 L 1184 179.5  A 1.5 1.5 0 0 1 1182.5 178 L 1182.5 170  Z " fill-rule="nonzero" fill="#ffffff" stroke="none" />
  <path d="M 1182.5 170  A 1.5 1.5 0 0 1 1184 168.5 L 1192 168.5  A 1.5 1.5 0 0 1 1193.5 170 L 1193.5 178  A 1.5 1.5 0 0 1 1192 179.5 L 1184 179.5  A 1.5 1.5 0 0 1 1182.5 178 L 1182.5 170  Z " stroke-width="1" stroke="#aaaaaa" fill="none" />
  <path d="M 1184.57142857143 174  L 1187.14285714286 176.571428571429  " stroke-width="2.57142857142857" stroke="#aaaaaa" fill="none" />
  <path d="M 1187.14285714286 176.571428571429  L 1191.42857142857 170.571428571429  " stroke-width="2.57142857142857" stroke="#aaaaaa" fill="none" />
</svg>