<?xml version="1.0" encoding="utf-8"?>
<svg version="1.1" xmlns:xlink="http://www.w3.org/1999/xlink" width="15px" height="15px" viewBox="1236 406  15 15" xmlns="http://www.w3.org/2000/svg">
  <path d="M 1236.5 408  A 1.5 1.5 0 0 1 1238 406.5 L 1249 406.5  A 1.5 1.5 0 0 1 1250.5 408 L 1250.5 419  A 1.5 1.5 0 0 1 1249 420.5 L 1238 420.5  A 1.5 1.5 0 0 1 1236.5 419 L 1236.5 408  Z " fill-rule="nonzero" fill="#ffffff" stroke="none" />
  <path d="M 1236.5 408  A 1.5 1.5 0 0 1 1238 406.5 L 1249 406.5  A 1.5 1.5 0 0 1 1250.5 408 L 1250.5 419  A 1.5 1.5 0 0 1 1249 420.5 L 1238 420.5  A 1.5 1.5 0 0 1 1236.5 419 L 1236.5 408  Z " stroke-width="1" stroke="#aaaaaa" fill="none" />
</svg>