<?xml version="1.0" encoding="utf-8"?>
<svg version="1.1" xmlns:xlink="http://www.w3.org/1999/xlink" width="15px" height="15px" viewBox="1236 486  15 15" xmlns="http://www.w3.org/2000/svg">
  <path d="M 1236.5 488  A 1.5 1.5 0 0 1 1238 486.5 L 1249 486.5  A 1.5 1.5 0 0 1 1250.5 488 L 1250.5 499  A 1.5 1.5 0 0 1 1249 500.5 L 1238 500.5  A 1.5 1.5 0 0 1 1236.5 499 L 1236.5 488  Z " fill-rule="nonzero" fill="#ffffff" stroke="none" />
  <path d="M 1236.5 488  A 1.5 1.5 0 0 1 1238 486.5 L 1249 486.5  A 1.5 1.5 0 0 1 1250.5 488 L 1250.5 499  A 1.5 1.5 0 0 1 1249 500.5 L 1238 500.5  A 1.5 1.5 0 0 1 1236.5 499 L 1236.5 488  Z " stroke-width="1" stroke="#aaaaaa" fill="none" />
  <path d="M 1239.21428571429 493.5  L 1242.42857142857 496.714285714286  " stroke-width="3.21428571428571" stroke="#aaaaaa" fill="none" />
  <path d="M 1242.42857142857 496.714285714286  L 1247.78571428571 489.214285714286  " stroke-width="3.21428571428571" stroke="#aaaaaa" fill="none" />
</svg>