<?xml version="1.0" encoding="utf-8"?>
<svg version="1.1" xmlns:xlink="http://www.w3.org/1999/xlink" width="12px" height="14px" xmlns="http://www.w3.org/2000/svg">
  <g transform="matrix(1 0 0 1 -113 -14 )">
    <path d="M 0.988243676522995 13.8068400427503  C 0.828072675454246 13.8468827930175  0.6278589241183 13.7667972924831  0.427645172782354 13.5665835411471  C 0.267474171713593 13.4064125400784  0.147345920912028 13.1661560384752  0.147345920912028 12.9258995368721  L 0.147345920912028 1.39358745992162  C 0.147345920912028 1.03320270751692  0.267474171713604 0.752903455646597  0.507730673316735 0.472604203776272  C 0.747987174919865 0.232347702173137  1.06832917705739 0.0721767011043809  1.38867117919489 0.0721767011043809  L 1.62892768079803 0.0721767011043809  C 2.02935518346992 0.0721767011043809  2.3897399358746 0.272390452440327  2.71008193801213 0.672817955112219  L 9.8376914855718 11.003847524047  C 9.91777698610617 11.0839330245814  9.95781973637338 11.1239757748486  9.99786248664054 11.1239757748486  C 10.0379052369078 11.1239757748486  10.0379052369078 11.1239757748486  10.0779479871749 11.0839330245814  C 10.1179907374421 11.0438902743142  10.1179907374421 11.003847524047  10.1179907374421 10.9638047737798  L 10.1179907374421 0.993159957249732  C 10.1179907374421 0.752903455646597  10.1980762379765 0.552689704310651  10.3982899893124 0.352475952974705  C 10.5584609903812 0.152262201638759  10.7987174919843 0.0721767011043809  11.0389739935875 0.0721767011043809  C 11.2792304951906 0.0721767011043809  11.4794442465266 0.152262201638759  11.6796579978625 0.352475952974705  C 11.8798717491985 0.552689704310651  11.9599572497328 0.752903455646597  12 0.993159957249732  L 12 12.5655147844674  C 11.9599572497328 12.9258995368721  11.8398289989313 13.2061987887424  11.5595297470609 13.4464552903456  C 11.3192732454578 13.6867117919487  10.9989312433203 13.8068400427503  10.6385464909156 13.8068400427503  L 10.3982899893124 13.8068400427503  C 10.1980762379765 13.8068400427503  9.99786248664054 13.7667972924831  9.7976487353046 13.6466690416815  C 9.59743498396865 13.5665835411471  9.4773067331671 13.4064125400784  9.35717848236552 13.2862842892768  L 2.18952618453866 2.91521197007482  C 2.10944068400429 2.83512646954044  2.06939793373708 2.79508371927325  2.0293551834699 2.79508371927325  C 1.98931243320271 2.79508371927325  1.98931243320271 2.79508371927325  1.94926968293553 2.83512646954044  C 1.90922693266834 2.87516921980763  1.90922693266834 2.91521197007481  1.90922693266834 2.955254720342  L 1.90922693266834 12.8858567866049  C 1.90922693266834 13.1261132882081  1.82914143213397 13.326327039544  1.62892768079803 13.5265407908799  C 1.42871392946208 13.6867117919487  1.22850017812614 13.8068400427503  0.988243676522995 13.8068400427503  Z " fill-rule="nonzero" fill="#3e3a39" stroke="none" transform="matrix(1 0 0 1 113 14 )" />
  </g>
</svg>