<?xml version="1.0" encoding="utf-8"?>
<svg version="1.1" xmlns:xlink="http://www.w3.org/1999/xlink" width="8px" height="9px" xmlns="http://www.w3.org/2000/svg">
  <g transform="matrix(1 0 0 1 -22 -21 )">
    <path d="M 7.74064837905237 8.15041477937809  L 4.97769861061632 8.70815308667108  C 4.65735660847881 8.66525013995623  4.33701460634129 8.62234719324139  3.97662985393659 8.5365412998117  C 3.25586034912718 8.36492951295232  2.57513359458497 8.15041477937809  1.97449234057713 7.80719120565932  C 1.29376558603491 7.42106468522571  0.773209832561454 6.90622932464757  0.452867830423941 6.34849101735457  C 0.172568578553617 5.74784976334674  0.0123975774848603 5.10430556262405  0.0123975774848603 4.37495546847168  C 0.0123975774848603 3.68850832103415  0.172568578553617 3.04496412031147  0.53295333095832 2.44432286630363  C 0.893338083363022 1.84368161229579  1.41389383683648 1.37174919843249  2.05457784111151 0.985622677998881  C 2.57513359458497 0.685302050994963  3.21581759885999 0.470787317420735  3.9365871036694 0.299175530561351  C 4.69739935874599 0.127563743701971  5.4181688635554 0.0846607969871239  6.09889561809762 0.0846607969871239  L 6.29910936943356 0.0846607969871239  L 7.74064837905237 8.15041477937809  Z " fill-rule="nonzero" fill="#036eb7" stroke="none" transform="matrix(1 0 0 1 22 21 )" />
  </g>
</svg>