<?xml version="1.0" encoding="utf-8"?>
<svg version="1.1" xmlns:xlink="http://www.w3.org/1999/xlink" width="13px" height="12px" xmlns="http://www.w3.org/2000/svg">
  <g transform="matrix(1 0 0 1 -10 -278 )">
    <path d="M 13 2.66666666666667  L 6.5 2.66666666666667  L 6.5 0  L 0 0  L 0 12  L 13 12  L 13 2.66666666666667  Z M 2.6 9.33333333333333  L 2.6 10.6666666666667  L 1.3 10.6666666666667  L 1.3 9.33333333333333  L 2.6 9.33333333333333  Z M 2.6 6.66666666666667  L 2.6 8  L 1.3 8  L 1.3 6.66666666666667  L 2.6 6.66666666666667  Z M 2.6 4  L 2.6 5.33333333333333  L 1.3 5.33333333333333  L 1.3 4  L 2.6 4  Z M 2.6 1.33333333333333  L 2.6 2.66666666666667  L 1.3 2.66666666666667  L 1.3 1.33333333333333  L 2.6 1.33333333333333  Z M 5.2 9.33333333333333  L 5.2 10.6666666666667  L 3.9 10.6666666666667  L 3.9 9.33333333333333  L 5.2 9.33333333333333  Z M 5.2 6.66666666666667  L 5.2 8  L 3.9 8  L 3.9 6.66666666666667  L 5.2 6.66666666666667  Z M 5.2 4  L 5.2 5.33333333333333  L 3.9 5.33333333333333  L 3.9 4  L 5.2 4  Z M 5.2 1.33333333333333  L 5.2 2.66666666666667  L 3.9 2.66666666666667  L 3.9 1.33333333333333  L 5.2 1.33333333333333  Z M 11.7 4  L 11.7 10.6666666666667  L 6.5 10.6666666666667  L 6.5 9.33333333333333  L 7.8 9.33333333333333  L 7.8 8  L 6.5 8  L 6.5 6.66666666666667  L 7.8 6.66666666666667  L 7.8 5.33333333333333  L 6.5 5.33333333333333  L 6.5 4  L 11.7 4  Z M 10.4 6.66666666666667  L 10.4 5.33333333333333  L 9.1 5.33333333333333  L 9.1 6.66666666666667  L 10.4 6.66666666666667  Z M 10.4 9.33333333333333  L 10.4 8  L 9.1 8  L 9.1 9.33333333333333  L 10.4 9.33333333333333  Z " fill-rule="nonzero" fill="#036eb7" stroke="none" transform="matrix(1 0 0 1 10 278 )" />
  </g>
</svg>