<?xml version="1.0" encoding="utf-8"?>
<svg version="1.1" xmlns:xlink="http://www.w3.org/1999/xlink" width="13px" height="13px" xmlns="http://www.w3.org/2000/svg">
  <g transform="matrix(1 0 0 1 -10 -466 )">
    <path d="M 11.5555555555556 6.5  L 11.5555555555556 11.5555555555556  L 1.44444444444444 11.5555555555556  L 1.44444444444444 1.44444444444444  L 6.5 1.44444444444444  L 6.5 0  L 1.44444444444444 0  C 0.642777777777778 0  0 0.65  0 1.44444444444444  L 0 11.5555555555556  C 0 12.35  0.642777777777778 13  1.44444444444444 13  L 11.5555555555556 13  C 12.35 13  13 12.35  13 11.5555555555556  L 13 6.5  L 11.5555555555556 6.5  Z M 13 0  L 7.94444444444444 0  L 7.94444444444444 1.44444444444444  L 10.5372222222222 1.44444444444444  L 3.43777777777778 8.54388888888889  L 4.45611111111111 9.56222222222222  L 11.5555555555556 2.46277777777778  L 11.5555555555556 5.05555555555556  L 13 5.05555555555556  L 13 0  Z " fill-rule="nonzero" fill="#036eb7" stroke="none" transform="matrix(1 0 0 1 10 466 )" />
  </g>
</svg>