<?xml version="1.0" encoding="utf-8"?>
<svg version="1.1" xmlns:xlink="http://www.w3.org/1999/xlink" width="13px" height="13px" xmlns="http://www.w3.org/2000/svg">
  <g transform="matrix(1 0 0 1 -10 -550 )">
    <path d="M 1.44444444444444 1.44444444444444  L 11.5555555555556 1.44444444444444  L 11.5555555555556 11.5555555555556  L 1.44444444444444 11.5555555555556  L 1.44444444444444 1.44444444444444  Z M 13 0.65  C 13 0.288888888888889  12.6388888888889 0  12.35 0  L 0.65 0  C 0.288888888888889 0  0 0.288888888888889  0 0.65  L 0 12.35  C 0 12.6388888888889  0.288888888888889 13  0.65 13  L 12.35 13  C 12.6388888888889 13  13 12.6388888888889  13 12.35  L 13 0.65  Z M 5.77777777777778 4.33333333333333  L 5.77777777777778 2.88888888888889  L 10.1111111111111 2.88888888888889  L 10.1111111111111 4.33333333333333  L 5.77777777777778 4.33333333333333  Z M 5.77777777777778 7.22222222222222  L 5.77777777777778 5.77777777777778  L 10.1111111111111 5.77777777777778  L 10.1111111111111 7.22222222222222  L 5.77777777777778 7.22222222222222  Z M 5.77777777777778 10.1111111111111  L 5.77777777777778 8.66666666666667  L 10.1111111111111 8.66666666666667  L 10.1111111111111 10.1111111111111  L 5.77777777777778 10.1111111111111  Z M 2.88888888888889 4.33333333333333  L 2.88888888888889 2.88888888888889  L 4.33333333333333 2.88888888888889  L 4.33333333333333 4.33333333333333  L 2.88888888888889 4.33333333333333  Z M 2.88888888888889 7.22222222222222  L 2.88888888888889 5.77777777777778  L 4.33333333333333 5.77777777777778  L 4.33333333333333 7.22222222222222  L 2.88888888888889 7.22222222222222  Z M 2.88888888888889 10.1111111111111  L 2.88888888888889 8.66666666666667  L 4.33333333333333 8.66666666666667  L 4.33333333333333 10.1111111111111  L 2.88888888888889 10.1111111111111  Z " fill-rule="nonzero" fill="#036eb7" stroke="none" transform="matrix(1 0 0 1 10 550 )" />
  </g>
</svg>