<?xml version="1.0" encoding="utf-8"?>
<svg version="1.1" xmlns:xlink="http://www.w3.org/1999/xlink" width="11px" height="15px" xmlns="http://www.w3.org/2000/svg">
  <g transform="matrix(1 0 0 1 -10 -52 )">
    <path d="M 4.125 10  C 4.125 10.7857142857143  4.74375 11.4285714285714  5.5 11.4285714285714  C 6.25625 11.4285714285714  6.875 10.7857142857143  6.875 10  C 6.875 9.21428571428571  6.25625 8.57142857142857  5.5 8.57142857142857  C 4.74375 8.57142857142857  4.125 9.21428571428572  4.125 10  Z M 11 6.42857142857143  C 11 5.64285714285714  10.38125 5  9.625 5  L 8.9375 5  L 8.9375 3.57142857142857  C 8.9375 1.6  7.3975 0  5.5 0  C 3.6025 0  2.0625 1.6  2.0625 3.57142857142857  L 3.36875 3.57142857142857  C 3.36875 2.35  4.324375 1.35714285714286  5.5 1.35714285714286  C 6.675625 1.35714285714286  7.63125 2.35  7.63125 3.57142857142857  L 7.63125 5  L 1.375 5  C 0.61875 5  0 5.64285714285714  0 6.42857142857143  L 0 13.5714285714286  C 0 14.3571428571429  0.61875 15  1.375 15  L 9.625 15  C 10.38125 15  11 14.3571428571429  11 13.5714285714286  L 11 6.42857142857143  Z M 9.625 6.42857142857143  L 9.625 13.5714285714286  L 1.375 13.5714285714286  L 1.375 6.42857142857143  L 9.625 6.42857142857143  Z " fill-rule="nonzero" fill="#036eb7" stroke="none" transform="matrix(1 0 0 1 10 52 )" />
  </g>
</svg>