<?xml version="1.0" encoding="utf-8"?>
<svg version="1.1" xmlns:xlink="http://www.w3.org/1999/xlink" width="9px" height="9px" xmlns="http://www.w3.org/2000/svg">
  <g transform="matrix(1 0 0 1 -10 -670 )">
    <path d="M 7.54714285714286 7.62428571428571  C 7.65 7.66285714285714  7.76571428571429 7.62428571428571  7.82357142857143 7.52785714285714  L 8.72357142857143 5.97214285714286  C 8.78142857142857 5.87571428571429  8.75571428571429 5.75357142857143  8.67214285714286 5.68285714285714  L 7.72071428571429 4.93714285714286  C 7.74 4.79571428571429  7.75285714285714 4.64785714285714  7.75285714285714 4.5  C 7.75285714285714 4.35214285714286  7.74 4.20428571428571  7.72071428571429 4.05642857142857  L 8.67214285714286 3.31071428571429  C 8.75571428571429 3.24  8.78142857142857 3.11785714285714  8.72357142857143 3.02142857142857  L 7.82357142857143 1.46571428571429  C 7.76571428571429 1.36928571428572  7.65 1.33071428571429  7.54714285714286 1.36928571428572  L 6.42857142857143 1.81928571428571  C 6.19714285714286 1.63928571428571  5.94642857142857 1.49142857142857  5.67 1.37571428571429  L 5.50285714285714 0.186428571428572  C 5.48357142857143 0.0835714285714285  5.38714285714286 0  5.27785714285714 0  L 3.47785714285714 0  C 3.36857142857143 0  3.27214285714286 0.0835714285714285  3.25285714285714 0.192857142857143  L 3.08571428571429 1.38214285714286  C 2.81571428571429 1.49785714285714  2.55857142857143 1.64571428571429  2.32714285714286 1.82571428571429  L 1.20857142857143 1.37571428571429  C 1.10571428571429 1.33714285714286  0.99 1.37571428571429  0.932142857142857 1.47214285714286  L 0.032142857142857 3.02785714285714  C -0.0257142857142857 3.12428571428571  0 3.24642857142857  0.0835714285714285 3.31714285714286  L 1.035 4.06285714285714  C 1.01571428571429 4.20428571428571  1.00285714285714 4.35214285714286  1.00285714285714 4.5  C 1.00285714285714 4.64785714285714  1.01571428571429 4.79571428571429  1.035 4.94357142857143  L 0.0835714285714285 5.68928571428571  C 0 5.76  -0.0257142857142857 5.88214285714286  0.032142857142857 5.97857142857143  L 0.932142857142857 7.53428571428571  C 0.99 7.63071428571429  1.10571428571429 7.66928571428571  1.20857142857143 7.63071428571429  L 2.32714285714286 7.18071428571429  C 2.55857142857143 7.36071428571429  2.80928571428571 7.50857142857143  3.08571428571429 7.62428571428571  L 3.25285714285714 8.81357142857143  C 3.27214285714286 8.91642857142857  3.36857142857143 9  3.47785714285714 9  L 5.27785714285714 9  C 5.38714285714286 9  5.48357142857143 8.91642857142857  5.50285714285714 8.80714285714286  L 5.67 7.61785714285714  C 5.94 7.50214285714286  6.19714285714286 7.35428571428571  6.42857142857143 7.17428571428571  L 7.54714285714286 7.62428571428571  Z M 5.66357142857143 4.5  C 5.66357142857143 5.20714285714286  5.085 5.78571428571429  4.37785714285714 5.78571428571429  C 3.67071428571429 5.78571428571429  3.09214285714286 5.20714285714286  3.09214285714286 4.5  C 3.09214285714286 3.79285714285714  3.67071428571429 3.21428571428571  4.37785714285714 3.21428571428571  C 5.085 3.21428571428571  5.66357142857143 3.79285714285714  5.66357142857143 4.5  Z " fill-rule="nonzero" fill="#036eb7" stroke="none" transform="matrix(1 0 0 1 10 670 )" />
  </g>
</svg>