<?xml version="1.0" encoding="utf-8"?>
<svg version="1.1" xmlns:xlink="http://www.w3.org/1999/xlink" width="6px" height="6px" xmlns="http://www.w3.org/2000/svg">
  <g transform="matrix(1 0 0 1 -17 -677 )">
    <path d="M 5.382 3.96666666666666  C 5.418 3.90666666666667  5.4 3.82666666666667  5.352 3.78  L 4.776 3.28666666666667  C 4.788 3.19333333333334  4.8 3.09333333333334  4.8 2.99333333333333  C 4.8 2.89333333333334  4.794 2.79333333333333  4.776 2.7  L 5.346 2.20666666666667  C 5.394 2.16  5.412 2.08  5.376 2.01333333333334  L 4.836 0.980000000000002  C 4.806 0.913333333333335  4.734 0.893333333333334  4.668 0.913333333333335  L 4.002 1.21333333333333  C 3.864 1.09333333333333  3.714 0.993333333333335  3.546 0.920000000000002  L 3.444 0.133333333333335  C 3.438 0.0533333333333334  3.378 0  3.318 0  L 2.244 0  C 2.178 0  2.118 0.0533333333333334  2.112 0.126666666666666  L 2.01 0.913333333333333  C 1.848 0.993333333333332  1.692 1.08666666666667  1.554 1.20666666666667  L 0.888000000000001 0.906666666666666  C 0.828000000000002 0.88  0.756000000000001 0.906666666666666  0.720000000000002 0.973333333333333  L 0.180000000000001 2.00666666666667  C 0.150000000000001 2.07333333333333  0.156000000000002 2.15333333333333  0.210000000000002 2.2  L 0.780000000000002 2.69333333333333  C 0.768000000000002 2.78666666666666  0.762000000000002 2.88666666666666  0.762000000000002 2.98666666666666  C 0.762000000000002 3.08666666666666  0.768000000000002 3.18666666666667  0.780000000000002 3.28  L 0.210000000000002 3.77333333333333  C 0.162000000000002 3.82  0.144000000000002 3.9  0.180000000000001 3.96666666666666  L 0.720000000000002 5  C 0.750000000000002 5.06666666666667  0.822000000000002 5.08666666666666  0.888000000000001 5.06666666666667  L 1.554 4.76666666666667  C 1.692 4.88666666666667  1.842 4.98666666666666  2.01 5.06  L 2.112 5.84666666666667  C 2.124 5.92  2.178 5.97333333333333  2.244 5.97333333333333  L 3.318 5.97333333333333  C 3.384 5.97333333333333  3.444 5.92  3.45 5.84666666666667  L 3.552 5.06  C 3.714 4.98  3.87 4.88666666666667  4.002 4.76666666666667  L 4.674 5.06666666666667  C 4.734 5.09333333333333  4.806 5.06666666666667  4.842 5  L 5.382 3.96666666666666  Z M 3.588 2.98666666666666  C 3.588 3.48666666666666  3.222 3.88666666666667  2.778 3.88666666666667  C 2.334 3.88666666666667  1.968 3.48666666666666  1.968 2.98666666666666  C 1.968 2.48666666666666  2.328 2.08666666666666  2.778 2.08666666666666  C 3.228 2.08666666666666  3.588 2.48666666666666  3.588 2.98666666666666  Z " fill-rule="nonzero" fill="#036eb7" stroke="none" transform="matrix(1 0 0 1 17 677 )" />
  </g>
</svg>