<?xml version="1.0" encoding="utf-8"?>
<svg version="1.1" xmlns:xlink="http://www.w3.org/1999/xlink" width="7px" height="13px" xmlns="http://www.w3.org/2000/svg">
  <g transform="matrix(1 0 0 1 -39 -16 )">
    <path d="M 2.90951193444959 12.8069112931956  C 2.01888136800855 12.8069112931956  1.27075169219808 12.6287851799074  0.558247239045247 12.2369077306733  C 0.308870680441753 12.0587816173851  0.166369789811188 11.8450302814393  0.166369789811188 11.5956537228358  C 0.166369789811188 11.4175276095476  0.237620235126471 11.2394014962594  0.344495903099396 11.0969006056288  C 0.486996793729961 10.9543997149982  0.629497684360526 10.8831492696829  0.843249020306377 10.8831492696829  C 0.985749910936942 10.8831492696829  1.05700035625223 10.9187744923406  1.16387602422515 10.9543997149982  C 1.69825436408978 11.2037762736017  2.19700748129676 11.3462771642323  2.76701104381902 11.3462771642323  C 3.44389027431421 11.3462771642323  3.9426433915212 11.1681510509441  4.29889561809761 10.77627360171  C 4.65514784467403 10.384396152476  4.83327395796224 9.74314214463841  4.83327395796224 8.81688635553972  L 4.83327395796224 1.29996437477734  C 4.83327395796224 1.08621303883149  4.90452440327752 0.908086925543284  5.08265051656573 0.729960812255076  C 5.2251514071963 0.551834698966867  5.43890274314214 0.480584253651584  5.65265407908799 0.480584253651584  C 5.86640541503384 0.480584253651584  6.04453152832205 0.551834698966867  6.22265764161026 0.729960812255076  C 6.40078375489847 0.908086925543284  6.47203420021375 1.08621303883149  6.47203420021375 1.29996437477734  L 6.47203420021375 8.67438546490916  C 6.47203420021375 10.0281439258995  6.18703241895262 11.0612753829711  5.58140363377271 11.773779836124  C 4.9757748485928 12.4862842892768  4.08514428215176 12.8069112931956  2.90951193444959 12.8069112931956  Z " fill-rule="nonzero" fill="#3e3a39" stroke="none" transform="matrix(1 0 0 1 39 16 )" />
  </g>
</svg>