<?xml version="1.0" encoding="utf-8"?>
<svg version="1.1" xmlns:xlink="http://www.w3.org/1999/xlink" width="11px" height="13px" xmlns="http://www.w3.org/2000/svg">
  <g transform="matrix(1 0 0 1 -47 -16 )">
    <path d="M 5.59707873174208 12.8069112931956  C 4.63519771998575 12.8069112931956  3.85144282151764 12.664410402565  3.10331314570717 12.3081581759886  C 2.31955824723905 11.9519059494122  1.6783042394015 11.4175276095476  1.21517634485216 10.7050231563947  C 0.752048450302819 9.9925187032419  0.502671891699329 9.1375133594585  0.502671891699329 8.14000712504453  L 0.502671891699329 1.29996437477734  C 0.502671891699329 1.08621303883149  0.573922337014611 0.908086925543284  0.752048450302819 0.729960812255076  C 0.894549340933388 0.551834698966867  1.10830067687924 0.480584253651584  1.32205201282508 0.480584253651584  C 1.53580334877093 0.480584253651584  1.71392946205914 0.551834698966867  1.89205557534735 0.729960812255076  C 2.07018168863555 0.908086925543284  2.14143213395084 1.08621303883149  2.14143213395084 1.29996437477734  L 2.14143213395084 8.14000712504453  C 2.14143213395084 8.85251157819736  2.31955824723905 9.42251514071963  2.64018525115782 9.88564303526897  C 2.92518703241896 10.3487709298183  3.35268970431066 10.7050231563947  3.85144282151764 10.9543997149982  C 4.35019593872462 11.2037762736017  4.92019950124689 11.3106519415746  5.5258282864268 11.3106519415746  C 6.09583184894906 11.3106519415746  6.66583541147133 11.2037762736017  7.16458852867831 10.9543997149982  C 7.69896686854293 10.7050231563947  8.12646954043463 10.3487709298183  8.41147132169576 9.85001781261133  C 8.6964731029569 9.35126469540434  8.87459921624511 8.78126113288208  8.87459921624511 8.14000712504453  L 8.87459921624511 1.29996437477734  C 8.87459921624511 1.08621303883149  8.94584966156039 0.908086925543284  9.1239757748486 0.729960812255076  C 9.26647666547917 0.551834698966867  9.48022800142501 0.480584253651584  9.69397933737086 0.480584253651584  C 9.90773067331671 0.480584253651584  10.0858567866049 0.551834698966867  10.2639828998931 0.729960812255076  C 10.4421090131813 0.908086925543284  10.5133594584966 1.08621303883149  10.5133594584966 1.29996437477734  L 10.5133594584966 8.10438190238689  C 10.5133594584966 9.10188813680086  10.2639828998931 9.9925187032419  9.80085500534378 10.7050231563947  C 9.33772711079445 11.3819023868899  8.73209832561454 11.9162807267545  7.98396864980407 12.272532953331  C 7.23583897399359 12.6287851799074  6.41645885286783 12.8069112931956  5.59707873174208 12.8069112931956  Z " fill-rule="nonzero" fill="#3e3a39" stroke="none" transform="matrix(1 0 0 1 47 16 )" />
  </g>
</svg>