<?xml version="1.0" encoding="utf-8"?>
<svg version="1.1" xmlns:xlink="http://www.w3.org/1999/xlink" width="12px" height="13px" xmlns="http://www.w3.org/2000/svg">
  <g transform="matrix(1 0 0 1 -59 -16 )">
    <path d="M 1.32775204845029 12.7000356252227  C 1.1496259351621 12.7356608478803  0.971499821873891 12.664410402565  0.828998931243326 12.4862842892768  C 0.686498040612754 12.3437833986462  0.579622372639832 12.1300320627004  0.579622372639832 11.9162807267545  L 0.579622372639832 1.65621660135376  C 0.579622372639832 1.33558959743498  0.686498040612754 1.08621303883149  0.900249376558605 0.836836480228  C 1.11400071250446 0.623085144282151  1.39900249376559 0.480584253651584  1.68400427502672 0.480584253651584  L 1.89775561097257 0.480584253651584  C 2.25400783754899 0.480584253651584  2.57463484146776 0.658710366939792  2.8596366227289 1.01496259351621  L 9.20092625578911 10.2062700391877  C 9.27217670110439 10.277520484503  9.30780192376204 10.3131457071607  9.34342714641968 10.3131457071607  C 9.37905236907731 10.3131457071607  9.37905236907731 10.3131457071607  9.41467759173496 10.277520484503  C 9.45030281439259 10.2418952618454  9.45030281439259 10.2062700391877  9.45030281439259 10.1706448165301  L 9.45030281439259 1.29996437477734  C 9.45030281439259 1.08621303883149  9.52155325970787 0.908086925543284  9.69967937299608 0.729960812255076  C 9.84218026362665 0.551834698966867  10.0559315995725 0.480584253651584  10.2696829355183 0.480584253651584  C 10.4834342714642 0.480584253651584  10.6615603847524 0.551834698966867  10.8396864980406 0.729960812255076  C 11.0178126113288 0.908086925543284  11.0890630566441 1.08621303883149  11 1.29996437477734  L 11 11.5956537228358  C 11.0890630566441 11.9162807267545  10.9821873886712 12.165657285358  10.7328108300677 12.3794086213039  C 10.5190594941218 12.5931599572497  10.2340577128607 12.7000356252227  9.91343070894192 12.7000356252227  L 9.69967937299607 12.7000356252227  C 9.52155325970786 12.7000356252227  9.34342714641966 12.664410402565  9.16530103313145 12.5575347345921  C 8.98717491984324 12.4862842892768  8.88029925187031 12.3437833986462  8.77342358389739 12.2369077306733  L 2.39650872817954 3.00997506234414  C 2.32525828286425 2.93872461702886  2.28963306020662 2.90309939437122  2.25400783754898 2.90309939437122  C 2.21838261489133 2.90309939437122  2.21838261489133 2.90309939437122  2.18275739223369 2.93872461702886  C 2.14713216957605 2.9743498396865  2.14713216957605 3.00997506234414  2.14713216957605 3.04560028500178  L 2.14713216957605 11.8806555040969  C 2.14713216957605 12.0944068400428  2.07588172426077 12.272532953331  1.89775561097256 12.4506590666192  C 1.71962949768435 12.5931599572497  1.54150338439614 12.7000356252227  1.32775204845029 12.7000356252227  Z " fill-rule="nonzero" fill="#3e3a39" stroke="none" transform="matrix(1 0 0 1 59 16 )" />
  </g>
</svg>