<?xml version="1.0" encoding="utf-8"?>
<svg version="1.1" xmlns:xlink="http://www.w3.org/1999/xlink" width="12px" height="13px" xmlns="http://www.w3.org/2000/svg">
  <g transform="matrix(1 0 0 1 -71 -16 )">
    <path d="M 6.67723548272178 12.8425365158532  C 5.53722835767724 12.8069112931956  4.50409690060564 12.5575347345921  3.6134663341646 12.0587816173851  C 2.68721054506592 11.5600285001781  1.97470609191308 10.8475240470253  1.44032775204846 9.88564303526897  C 0.905949412183837 8.95938724617029  0.65657285358035 7.8550053437834  0.65657285358035 6.60812255076594  C 0.65657285358035 5.36123975774849  0.905949412183837 4.2568578553616  1.44032775204846 3.33060206626291  C 1.97470609191308 2.40434627716423  2.68721054506592 1.6918418240114  3.57784111150696 1.19308870680442  C 4.50409690060564 0.694335589597434  5.53722835767725 0.444959030993942  6.67723548272178 0.444959030993942  C 7.42536515853224 0.444959030993942  8.10224438902744 0.516209476309226  8.74349839686499 0.694335589597434  C 9.3491271820449 0.872461702885642  9.99038118988245 1.12183826148913  10.63163519772 1.51371571072319  C 10.8810117563235 1.65621660135376  11.0235126469541 1.86996793729961  11.0235126469541 2.19059494121838  C 11.0235126469541 2.36872105450659  10.9522622016388 2.51122194513716  10.8097613110082 2.65372283576772  C 10.6672604203776 2.79622372639829  10.5247595297471 2.86747417171357  10.3110081938012 2.86747417171357  C 10.1685073031707 2.86747417171357  10.0972568578554 2.83184894905593  9.99038118988245 2.79622372639829  C 9.45600285001782 2.51122194513716  8.95724973281084 2.33309583184895  8.45849661560386 2.19059494121838  C 7.95974349839687 2.04809405058782  7.42536515853224 1.97684360527253  6.81973637335234 1.97684360527253  C 5.82223013893837 1.97684360527253  5.00285001781263 2.19059494121838  4.32597078731743 2.58247239045244  C 3.64909155682223 2.9743498396865  3.11471321695761 3.54435340220876  2.7584609903812 4.22123263270395  C 2.40220876380478 4.93373708585679  2.22408265051657 5.7174919843249  2.22408265051657 6.64374777342358  C 2.22408265051657 7.57000356252227  2.40220876380478 8.35375846099038  2.7584609903812 9.03063769148557  C 3.11471321695761 9.7431421446384  3.64909155682223 10.3131457071607  4.32597078731743 10.7050231563947  C 5.03847524047026 11.0969006056288  5.85785536159602 11.3106519415746  6.81973637335234 11.3106519415746  C 7.42536515853224 11.3106519415746  7.95974349839687 11.2394014962594  8.45849661560386 11.0969006056288  C 8.95724973281084 10.9543997149982  9.45600285001782 10.77627360171  9.99038118988245 10.4912718204489  C 10.0616316351977 10.4556465977912  10.1685073031707 10.4200213751336  10.3110081938012 10.4200213751336  C 10.5247595297471 10.4200213751336  10.7028856430353 10.4912718204489  10.8097613110082 10.6337727110794  C 10.9522622016388 10.77627360171  11.0235126469541 10.9187744923406  11.0235126469541 11.0969006056288  C 11.0235126469541 11.4175276095476  10.8810117563235 11.6312789454934  10.63163519772 11.773779836124  C 9.99038118988245 12.1300320627004  9.34912718204491 12.4150338439615  8.74349839686499 12.5931599572497  C 8.13786961168509 12.7712860705379  7.46099038118989 12.8425365158532  6.67723548272178 12.8425365158532  Z " fill-rule="nonzero" fill="#3e3a39" stroke="none" transform="matrix(1 0 0 1 71 16 )" />
  </g>
</svg>