<?xml version="1.0" encoding="utf-8"?>
<svg version="1.1" xmlns:xlink="http://www.w3.org/1999/xlink" width="11px" height="13px" xmlns="http://www.w3.org/2000/svg">
  <g transform="matrix(1 0 0 1 -81 -16 )">
    <path d="M 5.83291770573567 12.7712860705379  C 5.61916636978982 12.7356608478803  5.44104025650161 12.664410402565  5.29853936587104 12.4862842892768  C 5.15603847524048 12.3437833986462  5.04916280726755 12.1300320627004  5.04916280726755 11.9162807267545  L 5.04916280726755 2.08371927324546  L 1.55789098681867 2.08371927324546  C 1.34413965087283 2.08371927324546  1.16601353758462 2.01246882793017  1.02351264695405 1.86996793729961  C 0.881011756323481 1.72746704666904  0.809761311008202 1.54934093338083  0.809761311008202 1.33558959743498  C 0.809761311008202 1.12183826148913  0.881011756323481 0.943712148200925  1.02351264695405 0.801211257570359  C 1.16601353758462 0.658710366939792  1.34413965087283 0.587459921624509  1.55789098681867 0.587459921624509  L 10.1435696473103 0.587459921624509  C 10.3573209832561 0.587459921624509  10.5354470965444 0.658710366939792  10.6779479871749 0.801211257570359  C 10.8204488778055 0.943712148200925  10.8916993231208 1.12183826148913  10.8916993231208 1.33558959743498  C 10.8916993231208 1.54934093338083  10.8204488778055 1.72746704666904  10.6779479871749 1.86996793729961  C 10.5354470965444 2.01246882793017  10.3573209832561 2.08371927324546  10.1435696473103 2.08371927324546  L 6.65229782686141 2.08371927324546  L 6.65229782686141 11.9519059494122  C 6.65229782686141 12.165657285358  6.58104738154614 12.3437833986462  6.40292126825793 12.5219095119345  C 6.22479515496973 12.664410402565  6.04666904168151 12.7712860705379  5.83291770573567 12.7712860705379  Z " fill-rule="nonzero" fill="#3e3a39" stroke="none" transform="matrix(1 0 0 1 81 16 )" />
  </g>
</svg>