<?xml version="1.0" encoding="utf-8"?>
<svg version="1.1" xmlns:xlink="http://www.w3.org/1999/xlink" width="3px" height="13px" xmlns="http://www.w3.org/2000/svg">
  <g transform="matrix(1 0 0 1 -92 -16 )">
    <path d="M 1.49483434271464 12.7356608478803  C 1.2810830067688 12.7356608478803  1.1029568934806 12.664410402565  0.92483078019238 12.4862842892768  C 0.782329889561808 12.3437833986462  0.675454221588893 12.1300320627004  0.675454221588893 11.9162807267545  L 0.675454221588893 1.29996437477734  C 0.675454221588893 1.08621303883149  0.746704666904179 0.908086925543284  0.92483078019238 0.729960812255076  C 1.06733167082295 0.551834698966867  1.2810830067688 0.480584253651584  1.49483434271464 0.480584253651584  C 1.7085856786605 0.480584253651584  1.8867117919487 0.551834698966867  2.06483790523691 0.729960812255076  C 2.24296401852511 0.908086925543284  2.3142144638404 1.08621303883149  2.3142144638404 1.29996437477734  L 2.3142144638404 11.9162807267545  C 2.3142144638404 12.1300320627004  2.24296401852511 12.3081581759886  2.06483790523691 12.4862842892768  C 1.8867117919487 12.6287851799074  1.7085856786605 12.7356608478803  1.49483434271464 12.7356608478803  Z " fill-rule="nonzero" fill="#3e3a39" stroke="none" transform="matrix(1 0 0 1 92 16 )" />
  </g>
</svg>