<?xml version="1.0" encoding="utf-8"?>
<svg version="1.1" xmlns:xlink="http://www.w3.org/1999/xlink" width="13px" height="13px" xmlns="http://www.w3.org/2000/svg">
  <g transform="matrix(1 0 0 1 -95 -16 )">
    <path d="M 6.83113644460279 12.7712860705379  C 5.69112931955826 12.8069112931956  4.62237263982901 12.5575347345921  3.69611685073033 12.0231563947275  C 2.80548628428929 11.4887780548628  2.09298183113646 10.77627360171  1.59422871392947 9.81439258995369  C 1.09547559672248 8.888136800855  0.846099038118993 7.81938012112575  0.810473815461364 6.60812255076594  C 0.846099038118993 5.39686498040613  1.09547559672249 4.32810830067688  1.59422871392947 3.4018525115782  C 2.09298183113646 2.47559672247951  2.80548628428929 1.72746704666904  3.69611685073033 1.19308870680441  C 4.62237263982901 0.65871036693979  5.65550409690061 0.409333808336299  6.86676166726043 0.409333808336299  C 8.07801923762025 0.409333808336299  9.1467759173495 0.65871036693979  10.0374064837905 1.19308870680441  C 10.9280370502316 1.72746704666904  11.6405415033844 2.43997149982187  12.1392946205914 3.4018525115782  C 12.6380477377984 4.32810830067688  12.8874242964019 5.39686498040613  12.9230495190595 6.60812255076594  C 12.8874242964019 7.81938012112575  12.6380477377984 8.85251157819736  12.1392946205914 9.77876736729604  C 11.6405415033844 10.7406483790524  10.9280370502316 11.4887780548628  10.0017812611329 11.9875311720698  C 9.07552547203422 12.5219095119344  8.04239401496261 12.7712860705379  6.83113644460279 12.7712860705379  Z M 6.86676166726043 11.3462771642323  C 7.82864267901675 11.3106519415746  8.61239757748487 11.0969006056288  9.25365158532242 10.7050231563947  C 9.9305308158176 10.3131457071607  10.4292839330246 9.7431421446384  10.785536159601 9.03063769148557  C 11.1417883861774 8.31813323833274  11.3199144994656 7.53437833986462  11.3199144994656 6.60812255076594  C 11.3199144994656 5.7174919843249  11.1417883861774 4.89811186319915  10.785536159601 4.18560741004631  C 10.4292839330246 3.47310295689348  9.89490559315998 2.90309939437121  9.21802636266477 2.51122194513716  C 8.54114713216958 2.1193444959031  7.75739223370148 1.90559315995725  6.86676166726043 1.90559315995725  C 5.94050587816176 1.90559315995725  5.15675097969363 2.1193444959031  4.47987174919845 2.51122194513716  C 3.80299251870326 2.90309939437121  3.30423940149628 3.47310295689348  2.94798717491986 4.18560741004631  C 2.59173494834344 4.89811186319915  2.41360883505523 5.68186676166726  2.41360883505523 6.60812255076594  C 2.41360883505523 7.49875311720698  2.59173494834344 8.31813323833274  2.94798717491986 9.03063769148557  C 3.30423940149628 9.77876736729605  3.83861774136089 10.3487709298183  4.51549697185609 10.7406483790524  C 5.19237620235128 11.1325258282864  5.97613110081939 11.3462771642323  6.86676166726043 11.3462771642323  Z " fill-rule="nonzero" fill="#3e3a39" stroke="none" transform="matrix(1 0 0 1 95 16 )" />
  </g>
</svg>