<?xml version="1.0" encoding="utf-8"?>
<svg version="1.1" xmlns:xlink="http://www.w3.org/1999/xlink" width="11px" height="13px" xmlns="http://www.w3.org/2000/svg">
  <g transform="matrix(1 0 0 1 -109 -16 )">
    <path d="M 1.20306376914857 12.7000356252227  C 1.060562878518 12.7356608478803  0.882436765229798 12.664410402565  0.704310651941583 12.4862842892768  C 0.561809761311025 12.3437833986462  0.454934093338096 12.1300320627004  0.454934093338096 11.9162807267545  L 0.454934093338096 1.65621660135376  C 0.454934093338096 1.33558959743498  0.561809761311025 1.08621303883149  0.775561097256883 0.836836480228  C 0.989312433202727 0.623085144282151  1.27431421446386 0.480584253651584  1.55931599572499 0.480584253651584  L 1.77306733167083 0.480584253651584  C 2.12931955824725 0.480584253651584  2.44994656216602 0.658710366939792  2.73494834342716 1.01496259351621  L 9.07623797648736 10.2062700391877  C 9.14748842180265 10.277520484503  9.18311364446029 10.3131457071607  9.21873886711792 10.3131457071607  C 9.25436408977558 10.3131457071607  9.25436408977558 10.3131457071607  9.28998931243321 10.277520484503  C 9.32561453509085 10.2418952618454  9.32561453509085 10.2062700391877  9.32561453509085 10.1706448165301  L 9.32561453509085 1.29996437477734  C 9.32561453509085 1.08621303883149  9.39686498040614 0.908086925543284  9.57499109369434 0.729960812255076  C 9.71749198432489 0.551834698966867  9.93124332027075 0.480584253651584  10.1449946562166 0.480584253651584  C 10.3587459921625 0.480584253651584  10.5368721054507 0.551834698966867  10.7149982187389 0.729960812255076  C 10.8931243320271 0.908086925543284  10.9643747773424 1.08621303883149  11 1.29996437477734  L 11 11.5956537228358  C 10.9643747773424 11.9162807267545  10.8574991093694 12.165657285358  10.608122550766 12.3794086213039  C 10.3943712148201 12.5931599572497  10.109369433559 12.7000356252227  9.78874242964019 12.7000356252227  L 9.57499109369434 12.7000356252227  C 9.39686498040614 12.7000356252227  9.21873886711792 12.664410402565  9.04061275382972 12.5575347345921  C 8.8624866405415 12.4862842892768  8.75561097256858 12.3437833986462  8.64873530459565 12.2369077306733  L 2.27182044887782 3.00997506234414  C 2.20057000356253 2.93872461702886  2.16494478090489 2.90309939437122  2.12931955824725 2.90309939437122  C 2.0936943355896 2.90309939437122  2.0936943355896 2.90309939437122  2.05806911293196 2.93872461702886  C 2.02244389027432 2.9743498396865  2.02244389027432 3.00997506234414  2.02244389027432 3.04560028500178  L 2.02244389027432 11.8806555040969  C 2.02244389027432 12.0944068400428  1.95119344495905 12.272532953331  1.77306733167083 12.4506590666192  C 1.59494121838263 12.5931599572497  1.41681510509441 12.7000356252227  1.20306376914857 12.7000356252227  Z " fill-rule="nonzero" fill="#3e3a39" stroke="none" transform="matrix(1 0 0 1 109 16 )" />
  </g>
</svg>