<?xml version="1.0" encoding="utf-8"?>
<svg version="1.1" xmlns:xlink="http://www.w3.org/1999/xlink" width="8px" height="8px" xmlns="http://www.w3.org/2000/svg">
  <g transform="matrix(1 0 0 1 -30 -22 )">
    <path d="M 7.2069825436409 6.87816173851086  L 4.74884218026363 7.34128963306021  C 4.4638403990025 7.30566441040257  4.17883861774136 7.27003918774492  3.85821161382259 7.19878874242964  C 3.21695760598504 7.05628785179908  2.61132882080513 6.87816173851087  2.07695048094051 6.59315995724973  C 1.4713216957606 6.27253295333096  1.00819380121126 5.84503028143926  0.723192019950124 5.38190238688992  C 0.473815461346634 4.88314926968294  0.331314570716069 4.34877092981831  0.331314570716069 3.7431421446384  C 0.331314570716069 3.17313858211614  0.473815461346634 2.63876024225151  0.794442465265409 2.14000712504453  C 1.11506946918418 1.64125400783755  1.57819736373352 1.24937655860349  2.14820092625579 0.928749554684716  C 2.61132882080513 0.679372996081225  3.1813323833274 0.501246882793017  3.82258639116495 0.358745992162451  C 4.49946562166014 0.216245101531884  5.14071962949769 0.180619878874243  5.74634841467759 0.180619878874243  L 5.9244745279658 0.180619878874243  L 7.2069825436409 6.87816173851086  Z " fill-rule="nonzero" fill="#036eb7" stroke="none" transform="matrix(1 0 0 1 30 22 )" />
  </g>
</svg>