<?xml version="1.0" encoding="utf-8"?>
<svg version="1.1" xmlns:xlink="http://www.w3.org/1999/xlink" width="12px" height="12px" viewBox="1027 17  12 12" xmlns="http://www.w3.org/2000/svg">
  <path d="M 1027.5 19  A 1.5 1.5 0 0 1 1029 17.5 L 1037 17.5  A 1.5 1.5 0 0 1 1038.5 19 L 1038.5 27  A 1.5 1.5 0 0 1 1037 28.5 L 1029 28.5  A 1.5 1.5 0 0 1 1027.5 27 L 1027.5 19  Z " fill-rule="nonzero" fill="#ffffff" stroke="none" />
  <path d="M 1027.5 19  A 1.5 1.5 0 0 1 1029 17.5 L 1037 17.5  A 1.5 1.5 0 0 1 1038.5 19 L 1038.5 27  A 1.5 1.5 0 0 1 1037 28.5 L 1029 28.5  A 1.5 1.5 0 0 1 1027.5 27 L 1027.5 19  Z " stroke-width="1" stroke="#aaaaaa" fill="none" />
  <path d="M 1029.57142857143 23  L 1032.14285714286 25.5714285714286  " stroke-width="2.57142857142857" stroke="#aaaaaa" fill="none" />
  <path d="M 1032.14285714286 25.5714285714286  L 1036.42857142857 19.5714285714286  " stroke-width="2.57142857142857" stroke="#aaaaaa" fill="none" />
</svg>