<?xml version="1.0" encoding="utf-8"?>
<svg version="1.1" xmlns:xlink="http://www.w3.org/1999/xlink" width="15px" height="15px" viewBox="1081 135  15 15" xmlns="http://www.w3.org/2000/svg">
  <path d="M 1081.5 137  A 1.5 1.5 0 0 1 1083 135.5 L 1094 135.5  A 1.5 1.5 0 0 1 1095.5 137 L 1095.5 148  A 1.5 1.5 0 0 1 1094 149.5 L 1083 149.5  A 1.5 1.5 0 0 1 1081.5 148 L 1081.5 137  Z " fill-rule="nonzero" fill="#ffffff" stroke="none" />
  <path d="M 1081.5 137  A 1.5 1.5 0 0 1 1083 135.5 L 1094 135.5  A 1.5 1.5 0 0 1 1095.5 137 L 1095.5 148  A 1.5 1.5 0 0 1 1094 149.5 L 1083 149.5  A 1.5 1.5 0 0 1 1081.5 148 L 1081.5 137  Z " stroke-width="1" stroke="#aaaaaa" fill="none" />
</svg>