<?xml version="1.0" encoding="utf-8"?>
<svg version="1.1" xmlns:xlink="http://www.w3.org/1999/xlink" width="15px" height="15px" viewBox="1081 175  15 15" xmlns="http://www.w3.org/2000/svg">
  <path d="M 1081.5 177  A 1.5 1.5 0 0 1 1083 175.5 L 1094 175.5  A 1.5 1.5 0 0 1 1095.5 177 L 1095.5 188  A 1.5 1.5 0 0 1 1094 189.5 L 1083 189.5  A 1.5 1.5 0 0 1 1081.5 188 L 1081.5 177  Z " fill-rule="nonzero" fill="#ffffff" stroke="none" />
  <path d="M 1081.5 177  A 1.5 1.5 0 0 1 1083 175.5 L 1094 175.5  A 1.5 1.5 0 0 1 1095.5 177 L 1095.5 188  A 1.5 1.5 0 0 1 1094 189.5 L 1083 189.5  A 1.5 1.5 0 0 1 1081.5 188 L 1081.5 177  Z " stroke-width="1" stroke="#aaaaaa" fill="none" />
</svg>