<?xml version="1.0" encoding="utf-8"?>
<svg version="1.1" xmlns:xlink="http://www.w3.org/1999/xlink" width="15px" height="15px" viewBox="1081 295  15 15" xmlns="http://www.w3.org/2000/svg">
  <path d="M 1081.5 297  A 1.5 1.5 0 0 1 1083 295.5 L 1094 295.5  A 1.5 1.5 0 0 1 1095.5 297 L 1095.5 308  A 1.5 1.5 0 0 1 1094 309.5 L 1083 309.5  A 1.5 1.5 0 0 1 1081.5 308 L 1081.5 297  Z " fill-rule="nonzero" fill="#ffffff" stroke="none" />
  <path d="M 1081.5 297  A 1.5 1.5 0 0 1 1083 295.5 L 1094 295.5  A 1.5 1.5 0 0 1 1095.5 297 L 1095.5 308  A 1.5 1.5 0 0 1 1094 309.5 L 1083 309.5  A 1.5 1.5 0 0 1 1081.5 308 L 1081.5 297  Z " stroke-width="1" stroke="#aaaaaa" fill="none" />
  <path d="M 1084.21428571429 302.5  L 1087.42857142857 305.714285714286  " stroke-width="3.21428571428571" stroke="#aaaaaa" fill="none" />
  <path d="M 1087.42857142857 305.714285714286  L 1092.78571428571 298.214285714286  " stroke-width="3.21428571428571" stroke="#aaaaaa" fill="none" />
</svg>