<?xml version="1.0" encoding="utf-8"?>
<svg version="1.1" xmlns:xlink="http://www.w3.org/1999/xlink" width="15px" height="15px" viewBox="1081 335  15 15" xmlns="http://www.w3.org/2000/svg">
  <path d="M 1081.5 337  A 1.5 1.5 0 0 1 1083 335.5 L 1094 335.5  A 1.5 1.5 0 0 1 1095.5 337 L 1095.5 348  A 1.5 1.5 0 0 1 1094 349.5 L 1083 349.5  A 1.5 1.5 0 0 1 1081.5 348 L 1081.5 337  Z " fill-rule="nonzero" fill="#ffffff" stroke="none" />
  <path d="M 1081.5 337  A 1.5 1.5 0 0 1 1083 335.5 L 1094 335.5  A 1.5 1.5 0 0 1 1095.5 337 L 1095.5 348  A 1.5 1.5 0 0 1 1094 349.5 L 1083 349.5  A 1.5 1.5 0 0 1 1081.5 348 L 1081.5 337  Z " stroke-width="1" stroke="#aaaaaa" fill="none" />
</svg>