<?xml version="1.0" encoding="utf-8"?>
<svg version="1.1" xmlns:xlink="http://www.w3.org/1999/xlink" width="15px" height="15px" viewBox="1081 375  15 15" xmlns="http://www.w3.org/2000/svg">
  <path d="M 1081.5 377  A 1.5 1.5 0 0 1 1083 375.5 L 1094 375.5  A 1.5 1.5 0 0 1 1095.5 377 L 1095.5 388  A 1.5 1.5 0 0 1 1094 389.5 L 1083 389.5  A 1.5 1.5 0 0 1 1081.5 388 L 1081.5 377  Z " fill-rule="nonzero" fill="#ffffff" stroke="none" />
  <path d="M 1081.5 377  A 1.5 1.5 0 0 1 1083 375.5 L 1094 375.5  A 1.5 1.5 0 0 1 1095.5 377 L 1095.5 388  A 1.5 1.5 0 0 1 1094 389.5 L 1083 389.5  A 1.5 1.5 0 0 1 1081.5 388 L 1081.5 377  Z " stroke-width="1" stroke="#aaaaaa" fill="none" />
</svg>