<?xml version="1.0" encoding="utf-8"?>
<svg version="1.1" xmlns:xlink="http://www.w3.org/1999/xlink" width="14px" height="11px" xmlns="http://www.w3.org/2000/svg">
  <g transform="matrix(1 0 0 1 -8 -4 )">
    <path d="M 8.10526315789474 4.71428571428571  L 8.10526315789474 3.14285714285714  L 0 3.14285714285714  L 0 4.71428571428571  L 8.10526315789474 4.71428571428571  Z M 8.10526315789474 1.57142857142857  L 8.10526315789474 0  L 0 0  L 0 1.57142857142857  L 8.10526315789474 1.57142857142857  Z M 14 6.28571428571429  L 11.0526315789474 6.28571428571429  L 11.0526315789474 3.14285714285714  L 9.57894736842105 3.14285714285714  L 9.57894736842105 6.28571428571429  L 6.63157894736842 6.28571428571429  L 6.63157894736842 7.85714285714286  L 9.57894736842105 7.85714285714286  L 9.57894736842105 11  L 11.0526315789474 11  L 11.0526315789474 7.85714285714286  L 14 7.85714285714286  L 14 6.28571428571429  Z M 0 6.28571428571429  L 0 7.85714285714286  L 5.15789473684211 7.85714285714286  L 5.15789473684211 6.28571428571429  L 0 6.28571428571429  Z " fill-rule="nonzero" fill="#ffffff" stroke="none" transform="matrix(1 0 0 1 8 4 )" />
  </g>
</svg>