<?xml version="1.0" encoding="utf-8"?>
<svg version="1.1" xmlns:xlink="http://www.w3.org/1999/xlink" width="11px" height="11px" xmlns="http://www.w3.org/2000/svg">
  <g transform="matrix(1 0 0 1 -40 -3 )">
    <path d="M 11 0  L 9.384375 1.615625  C 8.3875 0.61875  7.019375 0  5.5 0  C 2.46125 0  0.00687499999999985 2.46125  0.00687499999999985 5.5  C 0.00687499999999985 8.53875  2.46125 11  5.5 11  C 8.064375 11  10.2025 9.246875  10.814375 6.875  L 9.384375 6.875  C 8.820625 8.476875  7.294375 9.625  5.5 9.625  C 3.224375 9.625  1.375 7.775625  1.375 5.5  C 1.375 3.224375  3.224375 1.375  5.5 1.375  C 6.64125 1.375  7.65875 1.849375  8.40125 2.59875  L 6.1875 4.8125  L 11 4.8125  L 11 0  Z " fill-rule="nonzero" fill="#555555" stroke="none" transform="matrix(1 0 0 1 40 3 )" />
  </g>
</svg>