<?xml version="1.0" encoding="utf-8"?>
<svg version="1.1" xmlns:xlink="http://www.w3.org/1999/xlink" width="14px" height="9px" xmlns="http://www.w3.org/2000/svg">
  <g transform="matrix(1 0 0 1 -68 -4 )">
    <path d="M 14 6.1875  C 14 4.7025  12.8041666666667 3.49875  11.2875 3.3975  C 10.8908333333333 1.456875  9.12333333333333 0  7 0  C 5.31416666666667 0  3.85 0.9225  3.12083333333333 2.2725  C 1.365 2.4525  0 3.886875  0 5.625  C 0 7.486875  1.56916666666667 9  3.5 9  L 11.0833333333333 9  C 12.6933333333333 9  14 7.74  14 6.1875  Z M 8.16666666666667 5.0625  L 9.91666666666667 5.0625  L 7 7.875  L 4.08333333333333 5.0625  L 5.83333333333333 5.0625  L 5.83333333333333 2.8125  L 8.16666666666667 2.8125  L 8.16666666666667 5.0625  Z " fill-rule="nonzero" fill="#555555" stroke="none" transform="matrix(1 0 0 1 68 4 )" />
  </g>
</svg>