<?xml version="1.0" encoding="utf-8"?>
<svg version="1.1" xmlns:xlink="http://www.w3.org/1999/xlink" width="8px" height="14px" xmlns="http://www.w3.org/2000/svg">
  <g transform="matrix(1 0 0 1 -32 -14 )">
    <path d="M 3.60662254139088 13.9269682935518  C 2.55286595541223 13.9269682935518  1.66771042319015 13.7267545422159  0.824705154407217 13.2862842892768  C 0.529653310333192 13.0860705379409  0.361052256576604 12.8458140363377  0.361052256576604 12.5655147844674  C 0.361052256576604 12.3653010331315  0.4453527834549 12.1650872817955  0.571803573772337 12.0049162807268  C 0.740404627528924 11.844745279658  0.909005681285509 11.7646597791236  1.16190726192039 11.7646597791236  C 1.33050831567697 11.7646597791236  1.41480884255527 11.8047025293908  1.54125963287271 11.844745279658  C 2.1735135844599 12.1250445315283  2.76361727260796 12.2852155325971  3.4380214876343 12.2852155325971  C 4.23887649297808 12.2852155325971  4.82898018112613 12.0850017812611  5.2504828155176 11.6445315283221  C 5.67198544990906 11.204061275383  5.8827367671048 10.4832917705736  5.8827367671048 9.44218026362665  L 5.8827367671048 0.993159957249732  C 5.8827367671048 0.752903455646597  5.96703729398309 0.552689704310651  6.17778861117882 0.352475952974705  C 6.34638966493541 0.152262201638759  6.59929124557029 0.0721767011043809  6.85219282620516 0.0721767011043809  C 7.10509440684004 0.0721767011043809  7.31584572403577 0.152262201638759  7.52659704123151 0.352475952974705  C 7.73734835842724 0.552689704310651  7.82164888530553 0.752903455646597  7.82164888530553 0.993159957249732  L 7.82164888530553 9.28200926255789  C 7.82164888530553 10.8036337727111  7.48444677779236 11.9648735304596  6.76789229932687 12.7657285358034  C 6.05133782086137 13.5665835411471  4.99758123488271 13.9269682935518  3.60662254139088 13.9269682935518  Z " fill-rule="nonzero" fill="#3e3a39" stroke="none" transform="matrix(1 0 0 1 32 14 )" />
  </g>
</svg>