<?xml version="1.0" encoding="utf-8"?>
<svg version="1.1" xmlns:xlink="http://www.w3.org/1999/xlink" width="12px" height="14px" xmlns="http://www.w3.org/2000/svg">
  <g transform="matrix(1 0 0 1 -42 -14 )">
    <path d="M 6.04046533911527 13.9269682935518  C 4.92202990061791 13.9269682935518  4.01071213591637 13.7667972924831  3.14081790597399 13.3663697898112  C 2.22950014127244 12.9659422871393  1.48387651560754 12.3653010331315  0.945370563738446 11.5644460277877  C 0.406864611869347 10.7635910224439  0.116899868555216 9.80256501603135  0.116899868555216 8.68136800855006  L 0.116899868555216 0.993159957249732  C 0.116899868555216 0.752903455646597  0.199746938073541 0.552689704310651  0.406864611869347 0.352475952974705  C 0.572558750905996 0.152262201638759  0.821099959460959 0.0721767011043809  1.06964116801593 0.0721767011043809  C 1.31818237657089 0.0721767011043809  1.5253000503667 0.152262201638759  1.7324177241625 0.352475952974705  C 1.93953539795831 0.552689704310651  2.02238246747663 0.752903455646597  2.02238246747663 0.993159957249732  L 2.02238246747663 8.68136800855005  C 2.02238246747663 9.48222301389384  2.22950014127244 10.1229070181689  2.60231195410489 10.6434627716423  C 2.93370023217818 11.1640185251158  3.43078264928812 11.5644460277877  4.01071213591637 11.844745279658  C 4.59064162254463 12.1250445315283  5.25341817869121 12.2451727823299  5.95761826959695 12.2451727823299  C 6.62039482574353 12.2451727823299  7.28317138189011 12.1250445315283  7.86310086851837 11.844745279658  C 8.48445388990578 11.5644460277877  8.98153630701572 11.1640185251158  9.31292458508901 10.6034200213751  C 9.64431286316229 10.0428215176345  9.85143053695811 9.40213751335946  9.85143053695811 8.68136800855005  L 9.85143053695811 0.993159957249732  C 9.85143053695811 0.752903455646597  9.93427760647643 0.552689704310651  10.1413952802722 0.352475952974705  C 10.3070894193089 0.152262201638759  10.5556306278638 0.0721767011043809  10.8041718364188 0.0721767011043809  C 11.0527130449738 0.0721767011043809  11.2598307187696 0.152262201638759  11.4669483925654 0.352475952974705  C 11.6740660663612 0.552689704310651  11.7569131358795 0.752903455646597  11.7569131358795 0.993159957249732  L 11.7569131358795 8.64132525828287  C 11.7569131358795 9.76252226576416  11.4669483925654 10.7635910224439  10.9284424406963 11.5644460277877  C 10.3899364888272 12.3252582828643  9.68573639792146 12.9258995368721  8.81584216797907 13.326327039544  C 7.94594793803669 13.7267545422159  6.99320663857598 13.9269682935518  6.04046533911527 13.9269682935518  Z " fill-rule="nonzero" fill="#3e3a39" stroke="none" transform="matrix(1 0 0 1 42 14 )" />
  </g>
</svg>