<?xml version="1.0" encoding="utf-8"?>
<svg version="1.1" xmlns:xlink="http://www.w3.org/1999/xlink" width="12px" height="14px" xmlns="http://www.w3.org/2000/svg">
  <g transform="matrix(1 0 0 1 -55 -14 )">
    <path d="M 0.92839330245813 13.8068400427503  C 0.728179551122202 13.8468827930175  0.527965799786256 13.7667972924831  0.367794798717495 13.5665835411471  C 0.207623797648739 13.4064125400784  0.087495546847174 13.1661560384752  0 12.9258995368721  L 0 1.39358745992162  C 0.087495546847174 1.03320270751692  0.207623797648739 0.752903455646597  0.447880299251875 0.472604203776272  C 0.688136800855011 0.232347702173137  1.00847880299253 0.0721767011043809  1.32882080513004 0.0721767011043809  L 1.56907730673317 0.0721767011043809  C 1.96950480940507 0.0721767011043809  2.32988956180977 0.272390452440327  2.65023156394728 0.672817955112219  L 9.77784111150696 11.003847524047  C 9.85792661204133 11.0839330245814  9.89796936230853 11.1239757748486  9.93801211257572 11.1239757748486  C 9.97805486284291 11.1239757748486  9.97805486284291 11.1239757748486  10.0180976131101 11.0839330245814  C 10.0581403633773 11.0438902743142  10.0581403633773 11.003847524047  10.0581403633773 10.9638047737798  L 10.0581403633773 0.993159957249732  C 10.0581403633773 0.752903455646597  10.1382258639117 0.552689704310651  10.3384396152476 0.352475952974705  C 10.4986106163164 0.152262201638759  10.7388671179195 0.0721767011043809  10.9791236195226 0.0721767011043809  C 11.2193801211258 0.0721767011043809  11.4195938724617 0.152262201638759  11.6198076237976 0.352475952974705  C 11.8200213751336 0.552689704310651  11.900106875668 0.752903455646597  12 0.993159957249732  L 12 12.5655147844674  C 11.900106875668 12.9258995368721  11.7799786248664 13.2061987887424  11.4996793729961 13.4464552903456  C 11.2594228713929 13.6867117919487  10.9390808692554 13.8068400427503  10.5786961168507 13.8068400427503  L 10.3384396152476 13.8068400427503  C 10.1382258639116 13.8068400427503  9.9380121125757 13.7667972924831  9.73779836123975 13.6466690416815  C 9.53758460990381 13.5665835411471  9.41745635910223 13.4064125400784  9.29732810830067 13.2862842892768  L 2.1296758104738 2.91521197007482  C 2.04959030993942 2.83512646954044  2.00954755967224 2.79508371927325  1.96950480940505 2.79508371927325  C 1.92946205913786 2.79508371927325  1.92946205913786 2.79508371927325  1.88941930887067 2.83512646954044  C 1.84937655860348 2.87516921980763  1.84937655860348 2.91521197007481  1.84937655860348 2.955254720342  L 1.84937655860348 12.8858567866049  C 1.84937655860348 13.1261132882081  1.7692910580691 13.326327039544  1.56907730673316 13.5265407908799  C 1.36886355539721 13.6867117919487  1.16864980406127 13.8068400427503  0.92839330245813 13.8068400427503  Z " fill-rule="nonzero" fill="#3e3a39" stroke="none" transform="matrix(1 0 0 1 55 14 )" />
  </g>
</svg>