<?xml version="1.0" encoding="utf-8"?>
<svg version="1.1" xmlns:xlink="http://www.w3.org/1999/xlink" width="12px" height="14px" xmlns="http://www.w3.org/2000/svg">
  <g transform="matrix(1 0 0 1 -69 -14 )">
    <path d="M 6.82921268257928 13.967011043819  C 5.54784467402922 13.9269682935518  4.38660491628074 13.6466690416815  3.38553615960101 13.0860705379409  C 2.3444246526541 12.5254720342002  1.54356964731031 11.7246170288564  0.942928393302475 10.6434627716423  C 0.342287139294638 9.6023512646954  0.0619878874243113 8.36102600641254  0.0619878874243113 6.95952974706092  C 0.0619878874243113 5.5580334877093  0.342287139294638 4.31670822942643  0.942928393302475 3.27559672247951  C 1.54356964731031 2.2344852155326  2.3444246526541 1.43363021018881  3.34549340933382 0.873031706448164  C 4.38660491628074 0.312433202707515  5.54784467402923 0.0321339508371913  6.82921268257928 0.0321339508371913  C 7.67011043819025 0.0321339508371913  8.43092269326685 0.11221945137157  9.15169219807625 0.312433202707516  C 9.83241895261847 0.512646954043462  10.5531884574279 0.792946205913786  11.2739579622373 1.23341645885287  C 11.5542572141076 1.39358745992162  11.7144282151764 1.63384396152476  11.7144282151764 1.99422871392946  C 11.7144282151764 2.19444246526541  11.634342714642 2.35461346633416  11.4741717135732 2.51478446740292  C 11.3140007125045 2.67495546847168  11.1538297114357 2.75504096900606  10.9135732098326 2.75504096900606  C 10.7534022087638 2.75504096900606  10.6733167082294 2.71499821873887  10.5531884574279 2.67495546847168  C 9.95254720342003 2.35461346633416  9.39194869967939 2.15439971499822  8.83135019593874 1.99422871392946  C 8.27075169219809 1.83405771286071  7.67011043819025 1.75397221232633  6.98938368364803 1.75397221232633  C 5.86818667616674 1.75397221232633  4.94720342002139 1.99422871392946  4.18639116494479 2.43469896686854  C 3.42557890986819 2.87516921980762  2.82493765586036 3.51585322408265  2.42451015318846 4.27666547915924  C 2.02408265051657 5.07752048450303  1.82386889918063 5.95846099038119  1.82386889918063 6.99957249732811  C 1.82386889918063 8.04068400427503  2.02408265051657 8.92162451015319  2.42451015318846 9.68243676522978  C 2.82493765586036 10.4832917705736  3.42557890986819 11.1239757748486  4.18639116494479 11.5644460277877  C 4.98724617028858 12.0049162807268  5.90822942643393 12.2451727823299  6.98938368364803 12.2451727823299  C 7.67011043819025 12.2451727823299  8.27075169219809 12.1650872817955  8.83135019593874 12.0049162807268  C 9.39194869967939 11.844745279658  9.95254720342003 11.6445315283221  10.5531884574279 11.3241895261845  C 10.6332739579623 11.2841467759173  10.7534022087638 11.2441040256502  10.9135732098326 11.2441040256502  C 11.1538297114357 11.2441040256502  11.3540434627717 11.3241895261845  11.4741717135732 11.4843605272533  C 11.634342714642 11.6445315283221  11.7144282151764 11.8047025293908  11.7144282151764 12.0049162807268  C 11.7144282151764 12.3653010331315  11.5542572141076 12.6055575347346  11.2739579622373 12.7657285358033  C 10.5531884574279 13.1661560384752  9.83241895261848 13.4864980406128  9.15169219807625 13.6867117919487  C 8.47096544353404 13.8869255432846  7.71015318845745 13.967011043819  6.82921268257928 13.967011043819  Z " fill-rule="nonzero" fill="#3e3a39" stroke="none" transform="matrix(1 0 0 1 69 14 )" />
  </g>
</svg>