<?xml version="1.0" encoding="utf-8"?>
<svg version="1.1" xmlns:xlink="http://www.w3.org/1999/xlink" width="12px" height="14px" xmlns="http://www.w3.org/2000/svg">
  <g transform="matrix(1 0 0 1 -81 -14 )">
    <path d="M 5.92019950124689 13.8869255432847  C 5.67994299964375 13.8468827930175  5.47972924830781 13.7667972924831  5.31955824723906 13.5665835411471  C 5.1593872461703 13.4064125400784  5.03925899536873 13.1661560384752  5 12.9258995368721  L 5 1.87410046312789  L 1.11506946918419 1.87410046312789  C 0.874812967581056 1.87410046312789  0.67459921624511 1.79401496259351  0.514428215176349 1.63384396152476  C 0.354257214107588 1.473672960456  0.274171713573219 1.27345920912006  0.274171713573219 1.03320270751692  C 0.274171713573219 0.792946205913786  0.354257214107588 0.59273245457784  0.514428215176349 0.432561453509083  C 0.67459921624511 0.272390452440326  0.874812967581056 0.192304951905948  1.11506946918419 0.192304951905948  L 10.7653722835768 0.192304951905948  C 11.0056287851799 0.192304951905948  11.2058425365159 0.272390452440327  11.3660135375846 0.432561453509083  C 11.5261845386534 0.59273245457784  11.6062700391877 0.792946205913786  11.6062700391877 1.03320270751692  C 11.6062700391877 1.27345920912006  11.5261845386534 1.473672960456  11.3660135375846 1.63384396152476  C 11.2058425365159 1.79401496259351  11.0056287851799 1.87410046312789  10.7653722835768 1.87410046312789  L 6.84118275739223 1.87410046312789  L 6.84118275739223 12.9659422871393  C 6.84118275739223 13.2061987887424  6.76109725685786 13.4064125400784  6.56088350552192 13.6066262914143  C 6.36066975418597 13.7667972924831  6.16045600285003 13.8869255432847  5.92019950124689 13.8869255432847  Z " fill-rule="nonzero" fill="#3e3a39" stroke="none" transform="matrix(1 0 0 1 81 14 )" />
  </g>
</svg>