<?xml version="1.0" encoding="utf-8"?>
<svg version="1.1" xmlns:xlink="http://www.w3.org/1999/xlink" width="2px" height="14px" xmlns="http://www.w3.org/2000/svg">
  <g transform="matrix(1 0 0 1 -93 -14 )">
    <path d="M 1.00819380121126 13.8468827930175  C 0.767937299608127 13.8468827930175  0.567723548272181 13.7667972924831  0.367509796936235 13.5665835411471  C 0.207338795867474 13.4064125400784  0.0872105450659205 13.1661560384752  0.0872105450659205 12.9258995368721  L 0.0872105450659205 0.993159957249732  C 0.0872105450659205 0.752903455646597  0.16729604560029 0.552689704310651  0.367509796936235 0.352475952974705  C 0.527680798004997 0.152262201638759  0.767937299608127 0.0721767011043809  1.00819380121126 0.0721767011043809  C 1.2484503028144 0.0721767011043809  1.44866405415034 0.152262201638759  1.64887780548629 0.352475952974705  C 1.84909155682224 0.552689704310651  1.92917705735661 0.752903455646597  1.92917705735661 0.993159957249732  L 1.92917705735661 12.9258995368721  C 1.92917705735661 13.1661560384752  1.84909155682224 13.3663697898112  1.64887780548629 13.5665835411471  C 1.44866405415034 13.7267545422159  1.2484503028144 13.8468827930175  1.00819380121126 13.8468827930175  Z " fill-rule="nonzero" fill="#3e3a39" stroke="none" transform="matrix(1 0 0 1 93 14 )" />
  </g>
</svg>