<?xml version="1.0" encoding="utf-8"?>
<svg version="1.1" xmlns:xlink="http://www.w3.org/1999/xlink" width="14px" height="15px" xmlns="http://www.w3.org/2000/svg">
  <g transform="matrix(1 0 0 1 -97 -14 )">
    <path d="M 6.77819736373355 14.8822141075882  C 5.49682935518348 14.9239253057832  4.2955468471678 14.6319469184182  3.25443534022089 14.0062789454934  C 2.25336658354116 13.3806109725686  1.45251157819738 12.5463870086688  0.891913074456727 11.4201846574041  C 0.331314570716074 10.3356935043344  0.0510153188457593 9.08435755848474  0.0109725685785747 7.66617681985512  C 0.0510153188457593 6.24799608122551  0.331314570716086 4.99666013537585  0.891913074456727 3.91216898230614  C 1.45251157819738 2.82767782923643  2.25336658354116 1.95174266714167  3.25443534022089 1.32607469421684  C 4.2955468471678 0.700406721292005  5.45678660491629 0.408428333927084  6.81824011400073 0.408428333927084  C 8.17969362308517 0.408428333927084  9.38097613110084 0.700406721292005  10.3820448877806 1.32607469421684  C 11.3831136444603 1.95174266714167  12.1839686498041 2.78596663104144  12.7445671535447 3.91216898230614  C 13.3051656572854 4.99666013537585  13.5854649091557 6.24799608122551  13.6255076594229 7.66617681985512  C 13.5854649091557 9.08435755848474  13.3051656572854 10.2939823061394  12.7445671535447 11.3784734592091  C 12.1839686498041 12.5046758104738  11.3831136444603 13.3806109725686  10.3420021375134 13.9645677472984  C 9.30089063056647 14.5902357202233  8.13965087281798 14.8822141075882  6.77819736373355 14.8822141075882  Z M 6.81824011400073 13.2137661797886  C 7.89939437121483 13.1720549815936  8.78033487709299 12.9217877924237  9.5011043819024 12.4629646122788  C 10.261916636979 12.004141432134  10.8225151407196 11.3367622610141  11.2229426433915 10.5025382971144  C 11.6233701460634 9.66831433321459  11.8235838973994 8.75066797292483  11.8235838973994 7.66617681985513  C 11.8235838973994 6.62339686498041  11.6233701460634 5.66403930649567  11.2229426433915 4.82981534259589  C 10.8225151407196 3.99559137869612  10.2218738867118 3.3282122075763  9.46106163163521 2.86938902743142  C 8.70024937655861 2.41056584728655  7.81930887068046 2.16029865811661  6.81824011400073 2.16029865811661  C 5.77712860705382 2.16029865811661  4.89618810117564 2.41056584728655  4.13537584609905 2.86938902743142  C 3.37456359102247 3.3282122075763  2.81396508728182 3.99559137869612  2.41353758460992 4.82981534259589  C 2.01311008193803 5.66403930649567  1.81289633060209 6.58168566678542  1.81289633060209 7.66617681985513  C 1.81289633060209 8.70895677472984  2.01311008193803 9.66831433321459  2.41353758460992 10.5025382971144  C 2.81396508728182 11.3784734592091  3.41460634128965 12.0458526303289  4.17541859636625 12.5046758104738  C 4.93623085144284 12.9634989906187  5.817171357321 13.2137661797886  6.81824011400073 13.2137661797886  Z " fill-rule="nonzero" fill="#3e3a39" stroke="none" transform="matrix(1 0 0 1 97 14 )" />
  </g>
</svg>