<?xml version="1.0" encoding="utf-8"?>
<svg version="1.1" xmlns:xlink="http://www.w3.org/1999/xlink" width="15px" height="15px" viewBox="1236 285  15 15" xmlns="http://www.w3.org/2000/svg">
  <path d="M 1236.5 287  A 1.5 1.5 0 0 1 1238 285.5 L 1249 285.5  A 1.5 1.5 0 0 1 1250.5 287 L 1250.5 298  A 1.5 1.5 0 0 1 1249 299.5 L 1238 299.5  A 1.5 1.5 0 0 1 1236.5 298 L 1236.5 287  Z " fill-rule="nonzero" fill="#ffffff" stroke="none" />
  <path d="M 1236.5 287  A 1.5 1.5 0 0 1 1238 285.5 L 1249 285.5  A 1.5 1.5 0 0 1 1250.5 287 L 1250.5 298  A 1.5 1.5 0 0 1 1249 299.5 L 1238 299.5  A 1.5 1.5 0 0 1 1236.5 298 L 1236.5 287  Z " stroke-width="1" stroke="#aaaaaa" fill="none" />
  <path d="M 1239.21428571429 292.5  L 1242.42857142857 295.714285714286  " stroke-width="3.21428571428571" stroke="#aaaaaa" fill="none" />
  <path d="M 1242.42857142857 295.714285714286  L 1247.78571428571 288.214285714286  " stroke-width="3.21428571428571" stroke="#aaaaaa" fill="none" />
</svg>