<?xml version="1.0" encoding="utf-8"?>
<svg version="1.1" xmlns:xlink="http://www.w3.org/1999/xlink" width="15px" height="15px" viewBox="1236 245  15 15" xmlns="http://www.w3.org/2000/svg">
  <path d="M 1236.5 247  A 1.5 1.5 0 0 1 1238 245.5 L 1249 245.5  A 1.5 1.5 0 0 1 1250.5 247 L 1250.5 258  A 1.5 1.5 0 0 1 1249 259.5 L 1238 259.5  A 1.5 1.5 0 0 1 1236.5 258 L 1236.5 247  Z " fill-rule="nonzero" fill="#f0f0f0" stroke="none" />
  <path d="M 1236.5 247  A 1.5 1.5 0 0 1 1238 245.5 L 1249 245.5  A 1.5 1.5 0 0 1 1250.5 247 L 1250.5 258  A 1.5 1.5 0 0 1 1249 259.5 L 1238 259.5  A 1.5 1.5 0 0 1 1236.5 258 L 1236.5 247  Z " stroke-width="1" stroke="#aaaaaa" fill="none" />
</svg>