<?xml version="1.0" encoding="utf-8"?>
<svg version="1.1" xmlns:xlink="http://www.w3.org/1999/xlink" width="15px" height="15px" viewBox="1236 325  15 15" xmlns="http://www.w3.org/2000/svg">
  <path d="M 1236.5 327  A 1.5 1.5 0 0 1 1238 325.5 L 1249 325.5  A 1.5 1.5 0 0 1 1250.5 327 L 1250.5 338  A 1.5 1.5 0 0 1 1249 339.5 L 1238 339.5  A 1.5 1.5 0 0 1 1236.5 338 L 1236.5 327  Z " fill-rule="nonzero" fill="#f0f0f0" stroke="none" />
  <path d="M 1236.5 327  A 1.5 1.5 0 0 1 1238 325.5 L 1249 325.5  A 1.5 1.5 0 0 1 1250.5 327 L 1250.5 338  A 1.5 1.5 0 0 1 1249 339.5 L 1238 339.5  A 1.5 1.5 0 0 1 1236.5 338 L 1236.5 327  Z " stroke-width="1" stroke="#aaaaaa" fill="none" />
</svg>