<?xml version="1.0" encoding="utf-8"?>
<svg version="1.1" xmlns:xlink="http://www.w3.org/1999/xlink" width="15px" height="15px" viewBox="1236 365  15 15" xmlns="http://www.w3.org/2000/svg">
  <path d="M 1236.5 367  A 1.5 1.5 0 0 1 1238 365.5 L 1249 365.5  A 1.5 1.5 0 0 1 1250.5 367 L 1250.5 378  A 1.5 1.5 0 0 1 1249 379.5 L 1238 379.5  A 1.5 1.5 0 0 1 1236.5 378 L 1236.5 367  Z " fill-rule="nonzero" fill="#ffffff" stroke="none" />
  <path d="M 1236.5 367  A 1.5 1.5 0 0 1 1238 365.5 L 1249 365.5  A 1.5 1.5 0 0 1 1250.5 367 L 1250.5 378  A 1.5 1.5 0 0 1 1249 379.5 L 1238 379.5  A 1.5 1.5 0 0 1 1236.5 378 L 1236.5 367  Z " stroke-width="1" stroke="#aaaaaa" fill="none" />
</svg>