<?xml version="1.0" encoding="utf-8"?>
<svg version="1.1" xmlns:xlink="http://www.w3.org/1999/xlink" width="15px" height="15px" viewBox="1236 485  15 15" xmlns="http://www.w3.org/2000/svg">
  <path d="M 1236.5 487  A 1.5 1.5 0 0 1 1238 485.5 L 1249 485.5  A 1.5 1.5 0 0 1 1250.5 487 L 1250.5 498  A 1.5 1.5 0 0 1 1249 499.5 L 1238 499.5  A 1.5 1.5 0 0 1 1236.5 498 L 1236.5 487  Z " fill-rule="nonzero" fill="#ffffff" stroke="none" />
  <path d="M 1236.5 487  A 1.5 1.5 0 0 1 1238 485.5 L 1249 485.5  A 1.5 1.5 0 0 1 1250.5 487 L 1250.5 498  A 1.5 1.5 0 0 1 1249 499.5 L 1238 499.5  A 1.5 1.5 0 0 1 1236.5 498 L 1236.5 487  Z " stroke-width="1" stroke="#aaaaaa" fill="none" />
  <path d="M 1239.21428571429 492.5  L 1242.42857142857 495.714285714286  " stroke-width="3.21428571428571" stroke="#aaaaaa" fill="none" />
  <path d="M 1242.42857142857 495.714285714286  L 1247.78571428571 488.214285714286  " stroke-width="3.21428571428571" stroke="#aaaaaa" fill="none" />
</svg>