<?xml version="1.0" encoding="utf-8"?>
<svg version="1.1" xmlns:xlink="http://www.w3.org/1999/xlink" width="15px" height="15px" viewBox="1246 256  15 15" xmlns="http://www.w3.org/2000/svg">
  <path d="M 1246.5 258  A 1.5 1.5 0 0 1 1248 256.5 L 1259 256.5  A 1.5 1.5 0 0 1 1260.5 258 L 1260.5 269  A 1.5 1.5 0 0 1 1259 270.5 L 1248 270.5  A 1.5 1.5 0 0 1 1246.5 269 L 1246.5 258  Z " fill-rule="nonzero" fill="#f0f0f0" stroke="none" />
  <path d="M 1246.5 258  A 1.5 1.5 0 0 1 1248 256.5 L 1259 256.5  A 1.5 1.5 0 0 1 1260.5 258 L 1260.5 269  A 1.5 1.5 0 0 1 1259 270.5 L 1248 270.5  A 1.5 1.5 0 0 1 1246.5 269 L 1246.5 258  Z " stroke-width="1" stroke="#aaaaaa" fill="none" />
</svg>