<?xml version="1.0" encoding="utf-8"?>
<svg version="1.1" xmlns:xlink="http://www.w3.org/1999/xlink" width="15px" height="15px" viewBox="387 499  15 15" xmlns="http://www.w3.org/2000/svg">
  <path d="M 387.5 501  A 1.5 1.5 0 0 1 389 499.5 L 400 499.5  A 1.5 1.5 0 0 1 401.5 501 L 401.5 512  A 1.5 1.5 0 0 1 400 513.5 L 389 513.5  A 1.5 1.5 0 0 1 387.5 512 L 387.5 501  Z " fill-rule="nonzero" fill="#ffffff" stroke="none" />
  <path d="M 387.5 501  A 1.5 1.5 0 0 1 389 499.5 L 400 499.5  A 1.5 1.5 0 0 1 401.5 501 L 401.5 512  A 1.5 1.5 0 0 1 400 513.5 L 389 513.5  A 1.5 1.5 0 0 1 387.5 512 L 387.5 501  Z " stroke-width="1" stroke="#aaaaaa" fill="none" />
</svg>