<?xml version="1.0" encoding="utf-8"?>
<svg version="1.1" xmlns:xlink="http://www.w3.org/1999/xlink" width="18px" height="10px" xmlns="http://www.w3.org/2000/svg">
  <g transform="matrix(1 0 0 1 -472 -295 )">
    <path d="M 18 3.33333333333333  L 9.53181818181818 3.33333333333333  C 8.86090909090909 1.39166666666667  7.04454545454545 0  4.90909090909091 0  C 2.20090909090909 0  0 2.24166666666667  0 5  C 0 7.75833333333333  2.20090909090909 10  4.90909090909091 10  C 7.04454545454545 10  8.86090909090909 8.60833333333333  9.53181818181818 6.66666666666667  L 13.0909090909091 6.66666666666667  L 13.0909090909091 10  L 16.3636363636364 10  L 16.3636363636364 6.66666666666667  L 18 6.66666666666667  L 18 3.33333333333333  Z M 6.54545454545455 5  C 6.54545454545455 5.91666666666667  5.80909090909091 6.66666666666667  4.90909090909091 6.66666666666667  C 4.00909090909091 6.66666666666667  3.27272727272727 5.91666666666667  3.27272727272727 5  C 3.27272727272727 4.08333333333333  4.00909090909091 3.33333333333333  4.90909090909091 3.33333333333333  C 5.80909090909091 3.33333333333333  6.54545454545455 4.08333333333333  6.54545454545455 5  Z " fill-rule="nonzero" fill="#ffffff" stroke="none" transform="matrix(1 0 0 1 472 295 )" />
  </g>
</svg>