<?xml version="1.0" encoding="utf-8"?>
<svg version="1.1" xmlns:xlink="http://www.w3.org/1999/xlink" width="15px" height="15px" viewBox="1385 117  15 15" xmlns="http://www.w3.org/2000/svg">
  <path d="M 1385.5 119  A 1.5 1.5 0 0 1 1387 117.5 L 1398 117.5  A 1.5 1.5 0 0 1 1399.5 119 L 1399.5 130  A 1.5 1.5 0 0 1 1398 131.5 L 1387 131.5  A 1.5 1.5 0 0 1 1385.5 130 L 1385.5 119  Z " fill-rule="nonzero" fill="#f0f0f0" stroke="none" />
  <path d="M 1385.5 119  A 1.5 1.5 0 0 1 1387 117.5 L 1398 117.5  A 1.5 1.5 0 0 1 1399.5 119 L 1399.5 130  A 1.5 1.5 0 0 1 1398 131.5 L 1387 131.5  A 1.5 1.5 0 0 1 1385.5 130 L 1385.5 119  Z " stroke-width="1" stroke="#aaaaaa" fill="none" />
</svg>