<?xml version="1.0" encoding="utf-8"?>
<svg version="1.1" xmlns:xlink="http://www.w3.org/1999/xlink" width="16px" height="16px" xmlns="http://www.w3.org/2000/svg">
  <g transform="matrix(1 0 0 1 -1249 -16 )">
    <path d="M 0 0  L 0 4  L 4 4  L 4 0  L 0 0  Z M 6 12  L 6 16  L 10 16  L 10 12  L 6 12  Z M 0 12  L 0 16  L 4 16  L 4 12  L 0 12  Z M 0 6  L 0 10  L 4 10  L 4 6  L 0 6  Z M 6 6  L 6 10  L 10 10  L 10 6  L 6 6  Z M 16 0  L 12 0  L 12 4  L 16 4  L 16 0  Z M 6 0  L 6 4  L 10 4  L 10 0  L 6 0  Z M 12 6  L 12 10  L 16 10  L 16 6  L 12 6  Z M 12 12  L 12 16  L 16 16  L 16 12  L 12 12  Z " fill-rule="nonzero" fill="#027db4" stroke="none" transform="matrix(1 0 0 1 1249 16 )" />
  </g>
</svg>