<?xml version="1.0" encoding="utf-8"?>
<svg version="1.1" xmlns:xlink="http://www.w3.org/1999/xlink" width="14px" height="13px" xmlns="http://www.w3.org/2000/svg">
  <g transform="matrix(1 0 0 1 -1230 -96 )">
    <path d="M 14 6.5  L 10.5 2.88888888888889  L 9.513 3.90722222222222  L 11.319 5.77777777777778  L 4.2 5.77777777777778  L 4.2 7.22222222222222  L 11.319 7.22222222222222  L 9.513 9.08555555555555  L 10.5 10.1111111111111  L 14 6.5  Z M 1.4 11.5555555555556  L 1.4 1.44444444444444  L 7 1.44444444444444  L 7 0  L 1.4 0  C 0.63 0  0 0.65  0 1.44444444444444  L 0 11.5555555555556  C 0 12.35  0.63 13  1.4 13  L 7 13  L 7 11.5555555555556  L 1.4 11.5555555555556  Z " fill-rule="nonzero" fill="#027db4" stroke="none" transform="matrix(1 0 0 1 1230 96 )" />
  </g>
</svg>