<?xml version="1.0" encoding="utf-8"?>
<svg version="1.1" xmlns:xlink="http://www.w3.org/1999/xlink" width="15px" height="15px" viewBox="387 474  15 15" xmlns="http://www.w3.org/2000/svg">
  <path d="M 387.5 476  A 1.5 1.5 0 0 1 389 474.5 L 400 474.5  A 1.5 1.5 0 0 1 401.5 476 L 401.5 487  A 1.5 1.5 0 0 1 400 488.5 L 389 488.5  A 1.5 1.5 0 0 1 387.5 487 L 387.5 476  Z " fill-rule="nonzero" fill="#ffffff" stroke="none" />
  <path d="M 387.5 476  A 1.5 1.5 0 0 1 389 474.5 L 400 474.5  A 1.5 1.5 0 0 1 401.5 476 L 401.5 487  A 1.5 1.5 0 0 1 400 488.5 L 389 488.5  A 1.5 1.5 0 0 1 387.5 487 L 387.5 476  Z " stroke-width="1" stroke="#aaaaaa" fill="none" />
  <path d="M 390.214285714286 481.5  L 393.428571428571 484.714285714286  " stroke-width="3.21428571428571" stroke="#aaaaaa" fill="none" />
  <path d="M 393.428571428571 484.714285714286  L 398.785714285714 477.214285714286  " stroke-width="3.21428571428571" stroke="#aaaaaa" fill="none" />
</svg>