<?xml version="1.0" encoding="utf-8"?>
<svg version="1.1" xmlns:xlink="http://www.w3.org/1999/xlink" width="15px" height="15px" viewBox="387 390  15 15" xmlns="http://www.w3.org/2000/svg">
  <path d="M 387.5 392  A 1.5 1.5 0 0 1 389 390.5 L 400 390.5  A 1.5 1.5 0 0 1 401.5 392 L 401.5 403  A 1.5 1.5 0 0 1 400 404.5 L 389 404.5  A 1.5 1.5 0 0 1 387.5 403 L 387.5 392  Z " fill-rule="nonzero" fill="#f0f0f0" stroke="none" />
  <path d="M 387.5 392  A 1.5 1.5 0 0 1 389 390.5 L 400 390.5  A 1.5 1.5 0 0 1 401.5 392 L 401.5 403  A 1.5 1.5 0 0 1 400 404.5 L 389 404.5  A 1.5 1.5 0 0 1 387.5 403 L 387.5 392  Z " stroke-width="1" stroke="#aaaaaa" fill="none" />
</svg>