<?xml version="1.0" encoding="utf-8"?>
<svg version="1.1" xmlns:xlink="http://www.w3.org/1999/xlink" width="15px" height="15px" viewBox="387 432  15 15" xmlns="http://www.w3.org/2000/svg">
  <path d="M 387.5 434  A 1.5 1.5 0 0 1 389 432.5 L 400 432.5  A 1.5 1.5 0 0 1 401.5 434 L 401.5 445  A 1.5 1.5 0 0 1 400 446.5 L 389 446.5  A 1.5 1.5 0 0 1 387.5 445 L 387.5 434  Z " fill-rule="nonzero" fill="#ffffff" stroke="none" />
  <path d="M 387.5 434  A 1.5 1.5 0 0 1 389 432.5 L 400 432.5  A 1.5 1.5 0 0 1 401.5 434 L 401.5 445  A 1.5 1.5 0 0 1 400 446.5 L 389 446.5  A 1.5 1.5 0 0 1 387.5 445 L 387.5 434  Z " stroke-width="1" stroke="#aaaaaa" fill="none" />
  <path d="M 390.214285714286 439.5  L 393.428571428571 442.714285714286  " stroke-width="3.21428571428571" stroke="#aaaaaa" fill="none" />
  <path d="M 393.428571428571 442.714285714286  L 398.785714285714 435.214285714286  " stroke-width="3.21428571428571" stroke="#aaaaaa" fill="none" />
</svg>